<?xml version="1.0" encoding="utf-8"?>
<!-- Generator: Adobe Illustrator 22.1.0, SVG Export Plug-In . SVG Version: 6.00 Build 0)  -->
<svg version="1.1" id="Layer_1" xmlns="http://www.w3.org/2000/svg" xmlns:xlink="http://www.w3.org/1999/xlink" x="0px" y="0px"
	 viewBox="0 0 310 96" enable-background="new 0 0 310 96" xml:space="preserve">
<g>
	<defs>
		<rect id="SVGID_1_" width="310" height="96"/>
	</defs>
	<clipPath id="SVGID_2_">
		<use xlink:href="#SVGID_1_"  overflow="visible"/>
	</clipPath>
	<path clip-path="url(#SVGID_2_)" fill-rule="evenodd" clip-rule="evenodd" fill="#A3238E" d="M165.855,51.219v-7.506h17.141v15.389
		c-3.276,2.244-6.18,3.782-8.702,4.588c-2.531,0.816-5.523,1.217-8.984,1.217c-4.26,0-7.732-0.73-10.418-2.193
		c-2.688-1.453-4.775-3.63-6.244-6.521c-1.48-2.889-2.227-6.2-2.227-9.941c0-3.941,0.816-7.371,2.426-10.285
		c1.622-2.91,3.982-5.119,7.109-6.633c2.431-1.167,5.705-1.748,9.818-1.748c3.965,0,6.933,0.362,8.907,1.085
		c1.964,0.723,3.597,1.841,4.898,3.363c1.294,1.511,2.275,3.434,2.931,5.772l-10.704,1.916c-0.446-1.363-1.196-2.406-2.254-3.125
		c-1.039-0.725-2.391-1.085-4.019-1.085c-2.434,0-4.373,0.847-5.819,2.544c-1.448,1.706-2.176,4.389-2.176,8.068
		c0,3.909,0.736,6.7,2.201,8.371c1.456,1.672,3.497,2.512,6.113,2.512c1.234,0,2.421-0.185,3.545-0.545
		c1.128-0.362,2.418-0.974,3.87-1.841v-3.404H165.855z M189.656,28.201h10.369l13.518,19.969V28.201h10.459v36.096h-10.459
		l-13.453-19.816v19.816h-10.433V28.201z M231.517,64.297V28.201h18.495c3.425,0,6.056,0.296,7.862,0.893
		c1.815,0.589,3.277,1.681,4.386,3.285c1.112,1.597,1.665,3.545,1.665,5.84c0,2.007-0.423,3.731-1.27,5.186
		c-0.854,1.452-2.023,2.63-3.505,3.538c-0.948,0.572-2.244,1.052-3.895,1.419c1.324,0.446,2.286,0.892,2.895,1.338
		c0.398,0.295,0.995,0.924,1.768,1.889c0.78,0.976,1.299,1.717,1.556,2.245l5.372,10.463h-12.543l-5.925-11.035
		c-0.755-1.421-1.423-2.352-2.021-2.783c-0.792-0.551-1.704-0.831-2.715-0.831h-0.979v14.648H231.517z M242.663,42.825h4.684
		c0.504,0,1.48-0.16,2.935-0.488c0.731-0.152,1.337-0.529,1.807-1.133c0.455-0.605,0.691-1.305,0.691-2.094
		c0-1.168-0.368-2.058-1.102-2.682c-0.736-0.629-2.118-0.938-4.141-0.938h-4.873V42.825z M293.397,49.547l9.726,2.957
		c-0.655,2.742-1.68,5.028-3.085,6.868c-1.404,1.84-3.151,3.228-5.237,4.163c-2.081,0.938-4.732,1.399-7.943,1.399
		c-3.904,0-7.099-0.568-9.564-1.705c-2.475-1.141-4.613-3.151-6.408-6.026c-1.796-2.872-2.698-6.545-2.698-11.025
		c0-5.973,1.582-10.57,4.74-13.772c3.165-3.211,7.637-4.818,13.414-4.818c4.525,0,8.079,0.918,10.667,2.759
		c2.589,1.84,4.518,4.662,5.768,8.469l-9.798,2.193c-0.342-1.101-0.7-1.906-1.078-2.418c-0.618-0.852-1.38-1.506-2.277-1.969
		c-0.897-0.461-1.905-0.689-3.012-0.689c-2.512,0-4.444,1.017-5.781,3.051c-1.012,1.512-1.525,3.884-1.525,7.118
		c0,4.008,0.613,6.748,1.816,8.237c1.212,1.489,2.907,2.227,5.096,2.227c2.118,0,3.729-0.597,4.816-1.799
		C292.119,53.574,292.907,51.834,293.397,49.547"/>
	<path clip-path="url(#SVGID_2_)" fill-rule="evenodd" clip-rule="evenodd" d="M152.118,83.602c0.615,0.576,1.182,1.133,1.704,1.672
		c0.949,0.964,1.609,1.588,1.982,1.871c0.535,0.4,0.993,0.673,1.379,0.823c0.389,0.147,0.74,0.219,1.066,0.219
		c0.264,0,0.512-0.04,0.736-0.125c0.21-0.08,0.41-0.205,0.589-0.37c0.1-0.095,0.234-0.307,0.398-0.632
		c0.182-0.348,0.402-0.524,0.672-0.524c0.137,0,0.256,0.052,0.359,0.157c0.102,0.111,0.154,0.233,0.154,0.38
		c0,0.372-0.273,0.728-0.828,1.075c-0.769,0.483-1.645,0.725-2.631,0.725c-0.664,0-1.201-0.071-1.617-0.209
		c-0.567-0.191-1.115-0.47-1.625-0.836c-0.514-0.365-1.204-0.999-2.062-1.901c-0.779-0.813-1.292-1.327-1.537-1.547
		c-0.239-0.216-0.478-0.396-0.714-0.542c-0.131-0.083-0.439-0.219-0.93-0.414c-0.954-0.385-1.679-0.961-2.179-1.735
		c-0.491-0.772-0.743-1.704-0.743-2.792c0-1.871,0.636-3.647,1.912-5.332c1.275-1.68,2.911-2.522,4.927-2.522
		c0.965,0,1.787,0.192,2.474,0.585c0.688,0.389,1.23,0.961,1.626,1.721c0.398,0.754,0.6,1.61,0.6,2.56
		c0,1.692-0.538,3.319-1.619,4.89C155.129,82.369,153.769,83.303,152.118,83.602 M152.576,71.796c-0.79,0-1.513,0.235-2.18,0.708
		c-0.662,0.474-1.204,1.209-1.625,2.213c-0.424,1.002-0.633,2.161-0.633,3.483c0,1.518,0.33,2.691,0.993,3.512
		c0.654,0.826,1.478,1.231,2.47,1.231c0.732,0,1.428-0.24,2.085-0.731c0.654-0.484,1.205-1.258,1.629-2.31
		c0.423-1.048,0.637-2.256,0.637-3.618c0-1.42-0.333-2.515-0.98-3.305C154.318,72.19,153.527,71.796,152.576,71.796 M165.372,75.011
		l-1.111,4.238c-0.217,0.813-0.676,1.537-1.382,2.175c-0.695,0.638-1.24,0.954-1.622,0.954c-0.107,0-0.207-0.053-0.298-0.154
		c-0.094-0.103-0.137-0.226-0.137-0.371c0-0.236,0.216-1.187,0.653-2.865c0.493-1.859,0.737-3.027,0.737-3.504
		c0-0.255-0.054-0.44-0.158-0.564c-0.098-0.118-0.236-0.178-0.398-0.178c-0.287,0-0.675,0.131-1.157,0.387
		c-0.475,0.257-1.181,0.8-2.09,1.626l0.452,0.365c0.51-0.49,0.872-0.796,1.087-0.924c0.205-0.129,0.371-0.195,0.493-0.195
		c0.136,0,0.207,0.1,0.207,0.294c0,0.327-0.232,1.323-0.682,2.985c-0.365,1.306-0.589,2.18-0.682,2.613
		c-0.051,0.311-0.089,0.599-0.089,0.868c0,0.347,0.068,0.597,0.207,0.757c0.135,0.156,0.32,0.237,0.564,0.237
		c0.432,0,0.948-0.176,1.536-0.53c0.893-0.529,1.646-1.145,2.244-1.843c-0.146,0.597-0.223,1.074-0.223,1.433
		c0,0.309,0.076,0.549,0.231,0.719c0.154,0.17,0.34,0.255,0.558,0.255c0.648,0,1.65-0.722,3.025-2.163l-0.342-0.38
		c-0.624,0.638-1.055,1.041-1.274,1.2c-0.157,0.101-0.296,0.154-0.406,0.154c-0.077,0-0.145-0.034-0.207-0.106
		c-0.066-0.065-0.092-0.167-0.092-0.3c0-0.29,0.282-1.48,0.848-3.573l0.956-3.607H165.372z M175.059,74.555l0.667-0.146
		l-0.766,2.619c-0.302,1.036-0.589,2.236-0.863,3.593c-0.155,0.737-0.227,1.215-0.227,1.426c0,0.215,0.077,0.321,0.252,0.321
		c0.111,0,0.281-0.072,0.521-0.217c0.421-0.256,0.832-0.57,1.219-0.951l0.329,0.401c-0.781,0.715-1.276,1.155-1.499,1.307
		c-0.434,0.299-0.848,0.524-1.243,0.668c-0.257,0.095-0.508,0.145-0.757,0.145c-0.178,0-0.305-0.041-0.394-0.119
		c-0.089-0.085-0.133-0.208-0.133-0.365c0-0.104,0.031-0.242,0.086-0.424l0.399-1.405c-0.584,0.708-1.281,1.322-2.092,1.829
		c-0.496,0.318-0.953,0.477-1.363,0.477c-0.398,0-0.7-0.143-0.918-0.425c-0.277-0.38-0.424-0.875-0.424-1.489
		c0-0.734,0.195-1.542,0.58-2.438c0.381-0.896,0.898-1.711,1.545-2.44c0.646-0.73,1.329-1.266,2.046-1.61
		c0.548-0.264,1.255-0.392,2.119-0.392c0.222,0,0.445,0.012,0.663,0.039L175.059,74.555z M173.791,76.138
		c-0.374-0.077-0.68-0.116-0.932-0.116c-0.606,0-1.143,0.173-1.604,0.512c-0.458,0.342-0.876,0.956-1.27,1.841
		c-0.391,0.885-0.585,1.768-0.585,2.649c0,0.468,0.08,0.81,0.23,1.011c0.159,0.209,0.363,0.313,0.617,0.313
		c0.467,0,0.971-0.257,1.512-0.771c0.536-0.512,0.931-1.252,1.183-2.216L173.791,76.138z M181.126,80.932l0.342,0.371
		c-0.532,0.608-1.159,1.162-1.882,1.661c-0.721,0.497-1.325,0.749-1.793,0.749c-0.209,0-0.385-0.083-0.517-0.245
		c-0.142-0.163-0.208-0.383-0.208-0.669c0-0.549,0.208-1.691,0.635-3.424l1.099-4.542c0.403-1.636,0.739-2.737,1.014-3.298
		c0.424-0.846,1.02-1.504,1.792-1.974c0.771-0.469,1.585-0.702,2.445-0.702c0.291,0,0.521,0.071,0.691,0.212
		c0.165,0.139,0.251,0.312,0.251,0.511c0,0.223-0.086,0.4-0.247,0.545c-0.164,0.139-0.404,0.21-0.717,0.21
		c-0.204,0-0.49-0.035-0.868-0.103c-0.323-0.057-0.629-0.086-0.904-0.086c-0.284,0-0.496,0.062-0.636,0.176
		c-0.195,0.168-0.377,0.516-0.537,1.046c-0.164,0.528-0.42,1.576-0.777,3.144l-1.015,4.328c-0.5,2.167-0.757,3.306-0.757,3.4
		c0,0.223,0.083,0.332,0.24,0.332c0.15,0,0.366-0.092,0.649-0.267C179.989,81.949,180.556,81.489,181.126,80.932 M186.234,70.285
		c0.212,0,0.385,0.07,0.523,0.212c0.136,0.142,0.205,0.326,0.205,0.545c0,0.302-0.107,0.571-0.312,0.799
		c-0.208,0.233-0.44,0.347-0.698,0.347c-0.205,0-0.377-0.071-0.512-0.212c-0.137-0.149-0.202-0.338-0.202-0.573
		c0-0.309,0.1-0.573,0.297-0.788C185.729,70.394,185.965,70.285,186.234,70.285 M182.215,77.129
		c0.592-0.592,0.979-0.945,1.154-1.055c0.174-0.109,0.327-0.166,0.465-0.166c0.125,0,0.188,0.074,0.188,0.209
		c0,0.123-0.024,0.263-0.071,0.423c-1.023,3.349-1.538,5.454-1.538,6.314c0,0.268,0.072,0.481,0.213,0.631
		c0.143,0.154,0.328,0.23,0.568,0.23c0.275,0,0.618-0.125,1.053-0.372c0.431-0.25,1.111-0.817,2.035-1.71l-0.391-0.388
		c-0.905,0.854-1.458,1.281-1.678,1.281c-0.054,0-0.106-0.034-0.153-0.099c-0.048-0.066-0.069-0.147-0.069-0.244
		c0-0.501,0.364-1.978,1.08-4.422c0.448-1.494,0.666-2.346,0.666-2.544c0-0.163-0.057-0.296-0.173-0.394
		c-0.118-0.096-0.284-0.144-0.5-0.144c-0.394,0-0.873,0.163-1.436,0.483c-0.562,0.321-1.182,0.857-1.863,1.617L182.215,77.129z
		 M189.754,73.139l1.628-0.631l-0.74,2.895h2.115l-0.163,0.735h-2.111l-0.904,3.461c-0.277,1.042-0.414,1.764-0.414,2.17
		c0,0.188,0.034,0.322,0.12,0.403c0.075,0.083,0.18,0.126,0.318,0.126c0.213,0,0.536-0.126,0.967-0.382
		c0.574-0.338,1.122-0.721,1.636-1.146l0.389,0.475c-1.493,1.134-2.486,1.829-2.992,2.09c-0.501,0.25-0.913,0.381-1.213,0.381
		c-0.259,0-0.455-0.095-0.603-0.281c-0.141-0.187-0.218-0.492-0.218-0.909c0-0.498,0.131-1.256,0.387-2.274l1.053-4.113h-1.648
		l0.179-0.735h1.641L189.754,73.139z M193.551,76.829c0.624-0.454,1.094-0.682,1.436-0.682c0.288,0,0.551,0.182,0.803,0.549
		c0.505,0.708,0.896,1.736,1.171,3.077c0.275,1.347,0.411,2.498,0.411,3.45c0,0.686-0.186,1.362-0.553,2.03
		c-0.372,0.669-0.875,1.243-1.505,1.726c-0.465,0.351-0.902,0.526-1.32,0.526c-0.154,0-0.451-0.044-0.875-0.148
		c-0.405-0.087-0.723-0.133-0.954-0.133c-0.296,0-0.535,0.076-0.718,0.224c-0.171,0.148-0.26,0.324-0.26,0.534
		c0,0.231,0.109,0.437,0.339,0.603c0.228,0.17,0.567,0.255,1.016,0.255c0.59,0,1.221-0.159,1.885-0.48
		c0.665-0.32,1.35-0.851,2.062-1.592c0.708-0.739,1.496-1.873,2.36-3.401c0.859-1.528,1.492-2.948,1.891-4.279
		c0.406-1.326,0.605-2.431,0.605-3.322c0-0.346-0.073-0.609-0.219-0.794c-0.146-0.187-0.343-0.285-0.579-0.285
		c-0.193,0-0.349,0.071-0.472,0.2c-0.133,0.129-0.192,0.297-0.192,0.498c0,0.204,0.059,0.548,0.183,1.036
		c0.114,0.433,0.177,0.778,0.177,1.041c0,1.261-0.575,2.962-1.727,5.105c0.016-0.326,0.023-0.563,0.023-0.723
		c0-1.221-0.207-2.481-0.618-3.778c-0.403-1.299-0.914-2.333-1.507-3.095c-0.132-0.166-0.264-0.25-0.409-0.25
		c-0.146,0-0.304,0.04-0.473,0.123c-0.299,0.143-0.818,0.473-1.548,0.985l-0.758,0.516L193.551,76.829z M215.923,83.847
		l-0.367-5.003c-0.076-1.019-0.114-1.692-0.114-2.015c0-0.931,0.13-1.785,0.395-2.567c0.26-0.784,0.723-1.624,1.392-2.521
		c-0.797,0-1.611,0.195-2.439,0.583c-0.821,0.386-1.429,0.83-1.815,1.328c-0.383,0.507-0.574,1.015-0.574,1.521
		c0,0.236,0.072,0.484,0.214,0.745c0.184,0.332,0.283,0.584,0.283,0.754c0,0.16-0.056,0.287-0.148,0.382
		c-0.1,0.097-0.218,0.145-0.368,0.145c-0.22,0-0.41-0.111-0.574-0.341c-0.196-0.3-0.309-0.678-0.309-1.127
		c0-0.839,0.316-1.647,0.945-2.427c0.624-0.779,1.484-1.355,2.574-1.726c0.7-0.242,1.716-0.407,3.059-0.494
		c0.363-0.029,0.732-0.066,1.102-0.104c-0.914,1.36-1.512,2.502-1.792,3.416c-0.282,0.915-0.419,2.15-0.419,3.715
		c0,1.198,0.061,2.296,0.185,3.286l1.96-2.118l1.671-1.735c1.689-1.757,2.826-3.145,3.412-4.157
		c0.441-0.765,0.663-1.463,0.663-2.088c0-0.342-0.076-0.724-0.236-1.138c-0.1-0.261-0.15-0.463-0.15-0.599
		c0-0.186,0.068-0.346,0.211-0.482c0.136-0.139,0.298-0.209,0.489-0.209c0.26,0,0.485,0.132,0.66,0.402
		c0.173,0.267,0.26,0.691,0.26,1.262c0,0.559-0.116,1.146-0.348,1.773c-0.225,0.622-0.713,1.419-1.456,2.378
		c-0.744,0.97-1.89,2.246-3.441,3.836C219.216,80.192,217.574,81.966,215.923,83.847 M231.485,74.555l-0.247,0.403
		c-0.225-0.027-0.441-0.039-0.666-0.039c-0.865,0-1.567,0.128-2.12,0.392c-0.715,0.344-1.395,0.88-2.043,1.61
		c-0.648,0.729-1.163,1.545-1.548,2.44c-0.376,0.896-0.575,1.705-0.575,2.438c0,0.614,0.139,1.109,0.423,1.489
		c0.215,0.283,0.518,0.425,0.912,0.425c0.417,0,0.871-0.159,1.369-0.477c0.809-0.507,1.509-1.121,2.093-1.829l-0.408,1.405
		c-0.059,0.182-0.08,0.32-0.08,0.424c0,0.157,0.039,0.279,0.133,0.365c0.084,0.079,0.217,0.119,0.396,0.119
		c0.247,0,0.5-0.049,0.757-0.145c0.394-0.144,0.805-0.369,1.242-0.668c0.224-0.152,0.717-0.591,1.496-1.307l-0.332-0.401
		c-0.384,0.381-0.787,0.695-1.213,0.951c-0.238,0.145-0.41,0.217-0.522,0.217c-0.168,0-0.25-0.106-0.25-0.321
		c0-0.211,0.068-0.689,0.219-1.426c0.277-1.357,0.57-2.557,0.87-3.593l0.767-2.619L231.485,74.555z M230.216,76.138
		c-0.367-0.077-0.675-0.116-0.926-0.116c-0.613,0-1.145,0.173-1.604,0.512c-0.457,0.342-0.877,0.956-1.27,1.841
		c-0.389,0.885-0.585,1.768-0.585,2.649c0,0.468,0.074,0.81,0.23,1.011c0.159,0.209,0.361,0.313,0.612,0.313
		c0.473,0,0.977-0.257,1.52-0.771c0.533-0.512,0.923-1.252,1.179-2.216L230.216,76.138z M237.551,80.932l0.345,0.371
		c-0.525,0.608-1.154,1.162-1.878,1.661c-0.725,0.497-1.326,0.749-1.8,0.749c-0.203,0-0.379-0.083-0.513-0.245
		c-0.14-0.163-0.208-0.383-0.208-0.669c0-0.549,0.211-1.691,0.632-3.424l1.104-4.542c0.402-1.636,0.741-2.737,1.014-3.298
		c0.421-0.846,1.016-1.504,1.786-1.974c0.777-0.469,1.589-0.702,2.451-0.702c0.291,0,0.516,0.071,0.686,0.212
		c0.167,0.139,0.247,0.312,0.247,0.511c0,0.223-0.08,0.4-0.238,0.545c-0.165,0.139-0.403,0.21-0.719,0.21
		c-0.202,0-0.49-0.035-0.872-0.103c-0.322-0.057-0.623-0.086-0.902-0.086c-0.281,0-0.492,0.062-0.633,0.176
		c-0.199,0.168-0.374,0.516-0.54,1.046c-0.153,0.528-0.414,1.576-0.777,3.144l-1.011,4.328c-0.505,2.167-0.76,3.306-0.76,3.4
		c0,0.223,0.082,0.332,0.245,0.332c0.146,0,0.361-0.092,0.65-0.267C236.417,81.949,236.985,81.489,237.551,80.932 M245.213,75.011
		l-1.106,4.238c-0.224,0.813-0.676,1.537-1.381,2.175c-0.702,0.638-1.244,0.954-1.619,0.954c-0.118,0-0.213-0.053-0.306-0.154
		c-0.092-0.103-0.133-0.226-0.133-0.371c0-0.236,0.212-1.187,0.65-2.865c0.485-1.859,0.736-3.027,0.736-3.504
		c0-0.255-0.053-0.44-0.155-0.564c-0.104-0.118-0.234-0.178-0.398-0.178c-0.292,0-0.683,0.131-1.165,0.387
		c-0.475,0.257-1.17,0.8-2.081,1.626l0.448,0.365c0.514-0.49,0.87-0.796,1.085-0.924c0.205-0.129,0.374-0.195,0.495-0.195
		c0.137,0,0.206,0.1,0.206,0.294c0,0.327-0.227,1.323-0.683,2.985c-0.363,1.306-0.585,2.18-0.674,2.613
		c-0.061,0.311-0.092,0.599-0.092,0.868c0,0.347,0.066,0.597,0.201,0.757c0.141,0.156,0.326,0.237,0.566,0.237
		c0.438,0,0.95-0.176,1.543-0.53c0.889-0.529,1.638-1.145,2.245-1.843c-0.148,0.597-0.225,1.074-0.225,1.433
		c0,0.309,0.076,0.549,0.229,0.719c0.154,0.17,0.342,0.255,0.559,0.255c0.641,0,1.652-0.722,3.023-2.163l-0.338-0.38
		c-0.633,0.638-1.055,1.041-1.277,1.2c-0.158,0.101-0.294,0.154-0.408,0.154c-0.075,0-0.145-0.034-0.205-0.106
		c-0.064-0.065-0.092-0.167-0.092-0.3c0-0.29,0.277-1.48,0.851-3.573l0.956-3.607H245.213z M253.289,80.83l0.332,0.456
		c-1.669,1.603-3.096,2.405-4.291,2.405c-0.482,0-0.85-0.166-1.106-0.492c-0.256-0.331-0.384-0.866-0.384-1.597
		c0-1.474,0.442-2.941,1.334-4.402c0.99-1.658,2.177-2.492,3.562-2.492c0.477,0,0.848,0.125,1.104,0.368
		c0.252,0.247,0.379,0.582,0.379,1.011c0,0.447-0.148,0.887-0.455,1.32c-0.308,0.437-0.85,0.887-1.645,1.355
		c-0.394,0.226-1.24,0.637-2.536,1.229c-0.059,0.374-0.09,0.724-0.09,1.065c0,0.49,0.077,0.826,0.23,1.022
		c0.155,0.194,0.379,0.291,0.669,0.291c0.283,0,0.591-0.079,0.922-0.237C251.761,81.919,252.421,81.482,253.289,80.83
		 M249.712,79.33c1.091-0.495,1.916-1.029,2.469-1.601c0.373-0.402,0.561-0.798,0.561-1.189c0-0.295-0.074-0.532-0.229-0.708
		c-0.156-0.176-0.35-0.265-0.598-0.265c-0.254,0-0.495,0.1-0.738,0.286c-0.316,0.26-0.585,0.644-0.806,1.163
		C250.063,77.769,249.84,78.543,249.712,79.33 M272.572,82.832l-0.147,0.59c-0.47,0.103-0.857,0.155-1.151,0.155
		c-0.285,0-0.764-0.031-1.418-0.092c-0.499-0.041-0.948-0.062-1.34-0.062c-0.684,0-1.384,0.062-2.103,0.188l0.142-0.569
		c0.69-0.068,1.19-0.214,1.5-0.434c0.225-0.159,0.419-0.431,0.58-0.812c0.159-0.383,0.516-1.716,1.089-4.007l1.3-5.477l0.071-0.259
		c-0.402-0.014-0.703-0.021-0.903-0.021c-1.26,0-2.261,0.141-3.002,0.415c-0.738,0.279-1.29,0.676-1.663,1.204
		c-0.372,0.52-0.553,1.085-0.553,1.69c0,0.213,0.037,0.411,0.117,0.589c0.047,0.126,0.197,0.325,0.444,0.599
		c0.233,0.255,0.345,0.49,0.345,0.704c0,0.189-0.065,0.346-0.203,0.475c-0.135,0.132-0.301,0.199-0.493,0.199
		c-0.283,0-0.518-0.142-0.694-0.416c-0.255-0.409-0.384-0.922-0.384-1.55c0-0.838,0.255-1.658,0.77-2.448
		c0.508-0.793,1.216-1.407,2.119-1.843c0.901-0.433,1.989-0.647,3.276-0.647c0.614,0,1.59,0.089,2.932,0.269
		c0.951,0.122,1.646,0.183,2.072,0.183c0.427,0,0.73-0.071,0.906-0.216c0.178-0.145,0.271-0.338,0.271-0.579
		c0-0.048-0.008-0.143-0.033-0.288c-0.022-0.129-0.03-0.22-0.03-0.258c0-0.185,0.062-0.339,0.182-0.466
		c0.12-0.122,0.27-0.185,0.438-0.185c0.205,0,0.372,0.074,0.505,0.226c0.138,0.151,0.199,0.356,0.199,0.609
		c0,0.527-0.273,0.979-0.823,1.354c-0.557,0.382-1.474,0.569-2.775,0.569c-0.456,0-0.954-0.02-1.475-0.059
		c-0.068,0.248-0.283,1.087-0.645,2.518l-0.889,3.574l-0.536,2.184l-0.565,2.49c0.458,0.055,0.833,0.086,1.135,0.086
		C271.597,83.011,272.074,82.949,272.572,82.832 M276.572,83.422l0.461-2.004c0.3-1.343,0.537-2.202,0.68-2.568
		c0.152-0.371,0.417-0.8,0.797-1.297c0.372-0.498,0.724-0.866,1.036-1.11c0.317-0.24,0.726-0.443,1.23-0.617
		c0.531-0.179,0.863-0.336,0.996-0.465c0.138-0.132,0.202-0.29,0.202-0.477c0-0.18-0.075-0.336-0.208-0.47
		c-0.139-0.133-0.305-0.2-0.513-0.2c-0.275,0-0.621,0.184-1.035,0.557c-0.869,0.779-1.643,1.716-2.329,2.815l0.434-1.855
		c0.094-0.384,0.137-0.618,0.137-0.715c0-0.087-0.038-0.16-0.103-0.218c-0.078-0.057-0.171-0.09-0.294-0.09
		c-0.35,0-0.849,0.182-1.502,0.534c-0.641,0.355-1.295,0.889-1.951,1.595l0.315,0.363c0.552-0.556,0.933-0.906,1.145-1.049
		c0.213-0.142,0.374-0.211,0.47-0.211c0.151,0,0.224,0.081,0.224,0.246c0,0.08-0.03,0.265-0.092,0.569
		c-0.255,1.23-0.56,2.524-0.906,3.888l-0.72,2.779H276.572z M287.855,75.011h1.447l-0.955,3.607c-0.567,2.092-0.85,3.283-0.85,3.573
		c0,0.133,0.031,0.235,0.1,0.3c0.055,0.073,0.123,0.106,0.201,0.106c0.112,0,0.25-0.053,0.408-0.154
		c0.22-0.159,0.646-0.562,1.275-1.2l0.335,0.38c-1.372,1.441-2.377,2.163-3.023,2.163c-0.218,0-0.404-0.085-0.554-0.255
		c-0.153-0.17-0.234-0.41-0.234-0.719c0-0.359,0.075-0.836,0.225-1.433c-0.607,0.698-1.349,1.315-2.245,1.843
		c-0.592,0.354-1.106,0.53-1.539,0.53c-0.239,0-0.43-0.081-0.565-0.237c-0.134-0.16-0.205-0.41-0.205-0.757
		c0-0.269,0.031-0.557,0.092-0.868c0.089-0.433,0.311-1.308,0.678-2.613c0.449-1.662,0.682-2.658,0.682-2.985
		c0-0.194-0.07-0.294-0.208-0.294c-0.121,0-0.284,0.065-0.496,0.195c-0.213,0.129-0.572,0.434-1.083,0.924l-0.45-0.365
		c0.914-0.826,1.611-1.368,2.091-1.626c0.479-0.257,0.868-0.387,1.156-0.387c0.168,0,0.296,0.06,0.396,0.178
		c0.104,0.124,0.157,0.31,0.157,0.564c0,0.478-0.246,1.645-0.74,3.504c-0.428,1.678-0.651,2.628-0.651,2.865
		c0,0.145,0.047,0.269,0.142,0.371c0.092,0.101,0.186,0.154,0.299,0.154c0.382,0,0.917-0.316,1.621-0.954
		c0.703-0.638,1.16-1.362,1.377-2.175L287.855,75.011z M295.058,74.719c0.606,0,1.068,0.121,1.397,0.357
		c0.333,0.239,0.496,0.511,0.496,0.822c0,0.189-0.065,0.35-0.207,0.486c-0.137,0.139-0.31,0.206-0.503,0.206
		c-0.131,0-0.245-0.029-0.34-0.086c-0.094-0.061-0.228-0.207-0.408-0.442c-0.34-0.446-0.666-0.67-0.988-0.67
		c-0.28,0-0.529,0.109-0.74,0.326c-0.214,0.213-0.325,0.485-0.325,0.81c0,0.284,0.072,0.561,0.205,0.82
		c0.138,0.269,0.479,0.698,1.03,1.291c0.756,0.813,1.133,1.583,1.133,2.314c0,0.73-0.305,1.37-0.92,1.914
		c-0.609,0.553-1.398,0.823-2.369,0.823c-0.805,0-1.409-0.166-1.804-0.5c-0.389-0.337-0.589-0.744-0.589-1.235
		c0-0.24,0.07-0.441,0.219-0.599c0.152-0.159,0.339-0.237,0.554-0.237c0.189,0,0.35,0.064,0.487,0.189
		c0.137,0.127,0.204,0.274,0.204,0.45c0,0.068-0.004,0.16-0.019,0.267c-0.007,0.09-0.007,0.164-0.007,0.228
		c0,0.227,0.092,0.419,0.286,0.578c0.18,0.163,0.427,0.236,0.753,0.236c0.367,0,0.691-0.06,0.969-0.189
		c0.281-0.127,0.496-0.322,0.651-0.579c0.162-0.257,0.238-0.514,0.238-0.77c0-0.245-0.074-0.498-0.222-0.743
		c-0.145-0.247-0.475-0.66-0.985-1.23c-0.707-0.798-1.06-1.568-1.06-2.306c0-0.671,0.266-1.266,0.806-1.77
		C293.539,74.972,294.225,74.719,295.058,74.719 M300.12,73.139l1.62-0.631l-0.734,2.895h2.112l-0.16,0.735h-2.116l-0.9,3.461
		c-0.275,1.042-0.413,1.764-0.413,2.17c0,0.188,0.034,0.322,0.113,0.403c0.074,0.083,0.188,0.126,0.324,0.126
		c0.209,0,0.53-0.126,0.97-0.382c0.575-0.338,1.113-0.721,1.632-1.146l0.39,0.475c-1.491,1.134-2.487,1.829-2.991,2.09
		c-0.506,0.25-0.908,0.381-1.219,0.381c-0.253,0-0.449-0.095-0.598-0.281c-0.14-0.187-0.216-0.492-0.216-0.909
		c0-0.498,0.129-1.256,0.385-2.274l1.052-4.113h-1.65l0.182-0.735h1.642L300.12,73.139z"/>
	<path clip-path="url(#SVGID_2_)" fill-rule="evenodd" clip-rule="evenodd" d="M259.319,80.977c1.153,0,2.092-0.951,2.092-2.116
		c0-1.161-0.939-2.116-2.092-2.116c-1.15,0-2.086,0.954-2.086,2.116C257.233,80.026,258.17,80.977,259.319,80.977"/>
	<path clip-path="url(#SVGID_2_)" fill-rule="evenodd" clip-rule="evenodd" d="M205.622,80.977c1.147,0,2.09-0.951,2.09-2.116
		c0-1.161-0.943-2.116-2.09-2.116c-1.157,0-2.094,0.954-2.094,2.116C203.529,80.026,204.466,80.977,205.622,80.977"/>
	<path clip-path="url(#SVGID_2_)" fill-rule="evenodd" clip-rule="evenodd" fill="#FACB2D" d="M20.036,74.113
		c0,0,13.456-0.349,25.079,3.889c0,0,5.262-7.062,13.187-7.219c0.056-0.002,0.111-0.002,0.167-0.003
		c0.062,0,0.123-0.001,0.185-0.001s0.124,0.001,0.186,0.001c0.056,0.001,0.112,0.001,0.167,0.003
		c7.926,0.157,13.188,7.219,13.188,7.219c11.622-4.238,25.078-3.889,25.078-3.889l0.409,0.074h-0.219
		c-0.205,0-0.936,0.033-0.936,0.033c-14.947,0.655-24.944,5.443-24.944,5.443c-4.493-3.62-8.853-4.882-12.7-4.93l-0.025,0
		c-0.044-0.001-0.088-0.002-0.132-0.002h-0.073h-0.071c-0.044,0.001-0.089,0.001-0.132,0.002l-0.028,0
		c-3.846,0.049-8.207,1.311-12.698,4.93c0,0-9.999-4.789-24.944-5.443c0,0-0.731-0.033-0.935-0.033h-0.219L20.036,74.113z"/>
	<path clip-path="url(#SVGID_2_)" fill-rule="evenodd" clip-rule="evenodd" fill="#A3238E" d="M53.883,22.776
		c0,0.483,0.414,0.999,0.767,0.999h0.538c0.095-0.355,0.307-0.273,0.307-0.846v-0.384c-0.117-0.043-0.92-0.967-1.613-1.153V22.776z
		 M67.403,28.307c0.156-0.109,0.356-0.23,0.614-0.23h0.769c1.287,0,3.072,2.227,3.072,3.535h-0.23v-0.153h-0.844l-0.69,0.086
		c0.009,0.46,0.74,1.065,1.227,1.065h0.23c0.281,0,0.166-0.207,0.537-0.307v0.691L72.011,34.3l-0.153,0.231
		c-0.044-0.533-0.908-1.03-1.46-1.076v0.613c0,0.722,0.225,1.383,0.922,1.383c0.62,0,0.42-0.541,0.538-0.153l-0.846,2.92
		c-0.181-0.286-0.035-0.757-0.476-1.137c-0.128-0.11-0.978-0.554-1.137-0.554h-0.307v0.307c0,0.782,0.28,1.92,0.999,1.92h0.076
		c0.265,0,0.298-0.056,0.538-0.076c-0.186,0.696-1.765,1.843-2.351,2.334c-0.956,0.798-1.554,1.301-2.431,2.179
		c-0.981,0.978-1.232,1.528-1.839,2.847c-0.356,0.773-0.317,3.402-0.831,3.778c0-1.578-2.076-1.961-2.227-3.763l0.017-0.281
		c0.243,0.39,0.445,0.895,1.058,0.895h0.077c0.797,0,1.525-0.618,1.771-1.147c0.115-0.253,0.687-1.962,0.682-2.261l-1.84,0.259
		c-0.341,0.229-0.631,0.256-0.999,0.536c-0.544,0.415-0.463,0.756-0.692,0.924v-0.23l1.299-3.035l0.084,0.039
		c0.012,0.514,0.241,0.767,0.769,0.767h0.307c0.368,0,0.478-0.087,0.691-0.229c-0.302-0.573-0.653-0.496-0.767-0.923h-0.769
		c0.34-1.453,3.028-2.901,4.241-3.67c0.714-0.452,1.674-1.184,2.121-1.873c0.614-0.949,0.857-1.528,0.857-3.06v-0.154
		c0-0.672-0.496-1.108-0.613-1.613h0.691c0.329,0,0.416-0.089,0.691-0.153c-0.077-0.29-0.626-0.923-0.999-0.923h-0.383
		c-0.186,0-0.226,0.125-0.384,0.23v0.384l-0.221-0.164l0.606,1.317c0,0.491,0.153,0.584,0.153,1.076v0.46
		c0,0.366-0.086,0.555-0.153,0.845c-0.369-0.58,0.188-0.772-0.88-1.577c-0.301-0.228-1.562-0.572-1.655-0.803h-0.462
		c0,1.48,0.443,3.227,1.921,3.227l0.431-0.068l0.337-0.086c-0.386,0.729-1.569,2.164-2.382,2.381v-0.537v-0.231
		c0-0.89-0.44-1.266-0.904-1.708c-0.278-0.264-1.129-1.053-1.478-1.133c-0.106,0.201-0.383,1.127-0.383,1.382v1.075
		c0,0.644,0.212,0.887,0.556,1.212c0.497,0.472,0.719,0.368,1.134,0.632c-0.427,0.286-0.851,0.571-1.29,0.861
		c-0.448,0.294-0.786,0.76-1.09,0.984c0.047-0.566,0.279-0.722,0.307-1.306c0.025-0.518,0.153-0.85,0.153-1.46
		c0-2.244-0.881-5.064-2.151-5.914l0.384,0.768c-0.113,0.054-0.575-0.23-1.076-0.23h-0.537c0.011,0.543,0.696,1.69,1.383,1.69
		c0.424,0,0.397-0.277,0.69-0.384c0.203,0.867,0.768,2.227,0.768,3.15v0.768c0,1.357-0.916,3.714-1.382,4.686l-0.133,0.073
		l-0.103-0.521l-1.267-0.549l-0.033,0.075l-0.017,0.309l0.111,0.824l0.598,0.471l0.459,0.086c-0.046,0.564-1.151,2.366-1.151,3.227
		v0.691c0,0.673,0.269,0.777,0.307,1.229c-1.538,0-4.158,0.202-4.455-1.076c0.146-0.401,0.615-0.424,0.615-1.076
		c0-0.562-0.654-1.501-1.076-1.612c-0.13,0.556-0.46,0.866-0.46,1.689c0,0.729,0.622,0.694,0.844,0.999
		c0,0.644,0.229,1.028,0.6,1.32c0.558,0.443,0.739,0.235,1.49,0.354c0.535,0.083,1.275-0.041,1.823,0.02
		c0.511,0.057,1.071,0.288,1.463,0.38v0.155c-0.41,0.109-1.228,1.305-1.228,1.612v0.307h-0.154v0.384l-0.834,1.313
		c0.449-0.129,0.944-1.151,1.218-1.543c0.242,0.383,0.097,1.612,0.921,1.612h0.231c0.179,0,0.306-0.127,0.306-0.307v-0.461
		c0-0.594-1.195-0.77-1.306-1.075c0.28-0.419,0.631-1.306,1.306-1.306c0.462,0,0.769,0.489,0.769,1c0,1.586-2.686,5.223-3.996,5.223
		h-0.153c-0.904,0-2.543-3.084-2.612-3.918h0.231c0.08,0.12,0.102,0.231,0.307,0.231h0.692c0.478,0,1.194-0.852,1.397-1.291
		c0.139-0.303,0.669-1.771,0.676-2.089c-0.916,0-1.754,0.207-2.406,0.513c-1.286,0.602-0.729,0.922-1.281,1.715
		c-0.328-1.409-0.999-3.235-0.999-4.917v-0.845c0-0.892,0.926-2.15,1.767-2.15h0.307c1.267,0,1.629,1.14,2.15,1.921l0.102,0.625
		c0.053-1.49-0.358-2.416-1.33-2.93c0.116-0.173,2.401-1.438,3.015-2.055c0.881-0.887,1.67-1.576,1.67-3.322h-0.077
		c0,0.791-0.789,1.647-1.305,1.921c0-1.509-1.153-3.335-1.153-4.456v-0.768c0-0.18,0.159-0.228,0.23-0.538
		c-0.332,0.222-0.537,0.667-0.537,1.229V34.3c0,1.492,0.845,2.625,0.845,4.071v0.076c0,1.14-0.818,1.802-1.539,2.226
		c-0.318,0.187-2.253,1.208-2.533,1.231c0.088-0.33,0.887-1.42,1.108-1.888c0.33-0.703,0.655-1.306,0.917-2.077
		c0.256-0.748,0.498-1.53,0.507-2.489c0.003-0.368,0.22-2.418,0.292-2.703c0.439-1.719,0.73-3.117,1.555-4.438
		c0.385-0.618,0.85-1.116,1.362-1.634c0.665-0.673,1.371-0.705,1.863-1.133c-1.167,0.027-2.063,0.921-2.671,1.555
		c-0.431,0.45-1.458,2.524-1.554,2.596c0-0.914,0.015-1.695,0.076-2.536c0.049-0.712,0.333-1.531,0.384-2.151l0.308-0.931
		l0.69,0.085h0.077c0.92,0,1.536-1.331,1.536-2.228v-0.46c-0.89,0.02-2.209,0.984-2.38,0.998c-0.067,0.29-0.154,0.48-0.154,0.845
		v0.461l0.215,0.023l-0.37,0.975c-0.634,1.002-0.989,5.997-1.382,7.683c-0.15-0.173-1.306-2.326-1.306-2.612v-1.307
		c0-0.599,1.306-2.106,1.306-3.457v-0.154c0-0.25-0.04-0.253-0.153-0.384c0,1.48-1.843,3.67-1.843,4.918h-0.153
		c-0.082-0.35-0.66-1.278-0.857-1.834c-0.165-0.468-0.45-1.531-0.45-2.161v-0.308c0-0.63,0.375-0.949,0.615-1.306
		c-0.424,0.114-0.998,0.977-0.998,1.536v0.461c0,1.423,1.135,3.102,1.639,4.123c0.448,0.908,1.663,2.834,1.663,4.021v1.459
		c0,0.562-0.584,1.984-0.858,2.368c-0.427,0.603-0.812,1.289-1.231,1.918c-0.344,0.514-2.401,3.549-2.826,3.549
		c-0.164,0-0.384-0.835-0.384-1.076v-1.382c0-1.205,1.387-2.893,1.919-3.687l0.077,0.384c0.211,0.141,0.4,0.537,0.691,0.537h0.461
		c0.351,0,1.158-0.841,1.459-0.922v-0.231c-0.583-0.049-0.814-0.383-1.306-0.383l-0.384-0.007l-0.538,0.007
		c0.211-0.79,0.691-1.006,0.691-2.381c0-3.847-4.532-6.204-4.532-7.453c0-0.146,0.154-0.052,0.154-0.306v-0.616l-0.541-0.531
		l-0.074,0.07c-0.092,0.345-0.23,0.382-0.23,0.922c0,0.322,0.195,0.453,0.537,0.461c0.043,1.897,3.841,3.666,3.841,6.991v0.692
		c0,0.996-0.675,1.812-1.139,2.395c-0.181,0.228-1.455,1.97-1.473,1.984c0-2.076-0.083-4.025-0.768-5.453l0.306,0.23h0.692
		c0.509,0,1.425-1.035,1.458-1.443l-1.688-0.094c-0.161-0.01-0.621,0.441-0.758,0.539l-0.087,0.46l-0.478-2.686
		c-0.268-0.118-0.462-0.761-0.643-1.033c-0.248-0.369-0.463-0.622-0.691-0.999c-0.331-0.544-0.953-1.633-0.953-2.428
		c-0.085,0.123-0.153,0.243-0.153,0.461c0,2.115,2.074,3.459,2.074,4.687v0.691c-0.281-0.023-0.947-0.697-1.331-0.896
		c-0.45-0.235-1.032-0.521-1.451-0.777c-0.495-0.302-0.899-0.534-1.354-0.875c-0.551-0.413-0.788-0.976-1.011-1.14
		c0.201,2.405,6.146,2.804,6.146,8.605v0.998l-0.264,2.762c-0.362-0.261-0.586-0.595-1.273-0.611v0.384l0.087,0.69
		c0.343,0.095,0.184,0.232,0.451,0.232h0.384c0.172,0,0.169-0.062,0.307-0.155l0.077,2.535c-0.17,0.061-0.03-0.23-0.538-0.23
		c-0.938,0-1.306,0.829-1.306,1.767c0.632-0.303,1.753,0.021,1.876-1.088l0.122,0.243l1.709,6.907
		c-1.63-0.029-4.706-2.07-4.706-3.604v-1.613c0-1.326,1.076-3.059,1.076-4.762v-0.769c0-1.054-0.431-2.466-0.819-3.175
		c-0.363-0.666-1.447-1.623-2.177-1.818l-0.615-0.538c0.09-0.17,0.23-0.375,0.23-0.614l0.018-0.156l-0.095-0.688
		c-0.35-0.094-1.052-0.985-1.69-0.999v1.536c0,0.361,0.521,0.833,0.768,0.999l0.63-0.015l0.599,0.553
		c0.391,0.583,1.254,1.145,1.768,1.843c0.472,0.642,0.921,1.507,0.921,2.612c-0.4-0.107-1.032-0.481-1.554-0.597
		c-0.54-0.118-1.046-0.358-1.467-0.604c-0.814-0.478-1.332-1.566-1.502-2.647c-0.178-1.134-0.277-2.537-0.579-3.569
		c-0.161-0.549-1.125-2.5-1.426-2.721c0.093,0.398,0.711,1.447,0.913,2.005c0.299,0.823,0.287,1.522,0.399,2.521
		c0.079,0.719,0.264,1.808,0.481,2.437c0.225,0.652,0.876,1.588,0.972,1.948c-0.427-0.114-2.519-1.552-3.026-1.89
		c-0.551-0.367-2.535-1.707-3.195-1.721l0.153,0.153c0.946,0.222,3.735,2.51,4.656,3.181c0.65,0.472,1.649,1.187,2.519,1.397
		c0.847,0.207,2.428,0.48,2.428,1.414v0.307c0,1.509-1.229,3.173-1.229,4.378c-0.246-0.066-0.851-1.274-1.131-1.557
		c-0.613-0.618-0.765-0.712-1.495-1.194c-0.279-0.185-3.277-2.008-3.288-2.011c0.363,1.56,3.494,2.327,4.454,3.764
		c-1.192-0.278-1.83-0.461-3.379-0.461c-2.144,0-1.735-0.056-2.688-1.153c0.056,0.676,0.426,1.274,0.921,1.536l0.083,0.15
		c-1.146,0.098-0.851,0.937-1.233,1.54c-0.76-0.507-1.704-2.519-1.69-3.84c0.007-0.812-0.469-4.298-0.692-4.763
		c-0.385-0.605-0.615-1.57-1.458-1.766l-0.385-0.153c-0.029-0.349-0.328-0.692-0.614-0.692h-0.385c-0.271,0-1.257,0.734-1.383,0.922
		c0.48,0.321,0.719,0.614,1.537,0.614c0.436,0,0.807-0.254,0.849-0.708l0.302,0.094c1.117,0.747,1.69,3.174,1.69,5.069v1.843
		c-0.221-0.059-1.816-2.315-2.208-2.708c-0.511-0.51-2.279-1.757-3.091-1.824c0.096,0.132,1.407,0.852,1.785,1.211
		c0.517,0.487,1.032,0.854,1.472,1.447c0.505,0.683,2.251,2.73,2.427,3.486c-0.653-0.436-0.856-0.921-2.075-0.921h-0.384
		c-0.561,0-0.82,0.23-1.382,0.23l-4.144,1.85c0.523-0.018,2.083-0.667,2.624-0.835c0.928-0.291,1.704-0.554,2.902-0.554h0.538
		c0.798,0,1.652,0.757,1.998,1.229c0.208,0.284,0.472,0.615,0.711,0.902c0.251,0.301,0.642,0.461,0.825,0.712l-0.688-0.095
		l-1.155,0.018c-0.358,0-2.995,0.558-3.149,0.691h0.846h0.691c-0.486,0.423-0.846,0.425-0.846,1.382v1.076
		c0,0.333,0.123,0.237,0.154,0.615h0.153c0.152-0.42,1.767-1.031,1.767-1.691v-0.384c0-0.804-0.253-0.668-0.371-1.029l-1.55,0.031
		l3.84-0.077c1.319,0,3.821,1.126,4.302,1.844l-0.469-0.13l-0.911-0.121l-0.616,0.019c-1.785,0-4.578,1.42-4.916,2.689
		c-0.613,0.014-0.576,0.426-0.691,0.922c0.387-0.008,0.844-0.299,0.844-0.614c0-0.149-0.024-0.138-0.076-0.231
		c0.717-1.355,3.09-2.15,5.223-2.15c1.123,0,1.31,0.377,1.997,0.537c-0.479,0.303-0.727-0.154-1.48,0.67
		c-0.158,0.173-0.67,1.203-0.67,1.481v0.23h0.691c0.47,0,1.283-0.215,1.56-0.438c0.807-0.653,0.245-0.938,0.591-1.483
		c0.65,0.565,1.241,1.148,1.692,1.918c0.178,0.301,1.444,2.098,1.458,2.153c-1.376-0.319-2.729-0.84-4.166-1.056
		c-1.678-0.254-3.291-0.04-5.053-0.171c-1.612-0.121-2.898-0.563-3.896-1.328c-0.806-0.616-2.261-1.653-2.786-2.437l1.383,0.154
		h0.307c0.569,0,1.228-0.986,1.228-1.613v-0.308c-0.171-0.04-0.175-0.077-0.383-0.077h-1c-0.264,0-0.297,0.057-0.536,0.077
		c0.07-0.264,0.153-0.203,0.153-0.307c0-0.371-1.018-1.076-1.459-1.076h-0.307c-0.815,0-1.056,0.562-1.537,0.691v0.154
		c0.476,0.127,0.867,1.075,1.614,1.075l0.957,0.016l-0.573,1.06c-0.657-0.439-1.397-1.685-2.382-1.767
		c0.109,0.148,1.017,0.869,1.362,1.25c0.391,0.429,0.86,0.972,1.173,1.439h-0.384l-0.233-0.017l-0.715,0.079l-0.83,1.581
		l0.089,0.047h0.921c1.519,0,1.134-0.855,1.382-1.382l1.075,1.152c-0.427,0.271-0.578-0.117-1.213,0.553
		c-0.139,0.146-0.547,0.995-0.553,1.291h0.999c0.542,0,1.306-0.374,1.306-0.846v-0.383c0-0.365-0.229,0.036-0.076-0.308
		c0.777,0.521,2.053,1.376,3.072,1.614v0.153c-0.466,0.011-2.311,0.661-3.028,0.814c-1.193,0.257-2.032,0.848-2.811,1.03
		l0.008-0.691c0.141-1.406-1.852-1.767-3.234-1.767h-0.691c0.032,0.391,0.514,1.302,0.692,1.611
		c0.201,0.347,1.046,1.151,1.075,1.231l1.38,0.099l-0.955,0.86l0.053,0.062l1.212-0.944c0.525-0.123,1.382-0.69,2.104-0.891
		c0.718-0.2,1.586-0.493,2.29-0.629c1.41-0.272,3.643-0.632,5.207-0.632h0.384l2.995,0.095l-0.455,0.951l0.072,0.03
		c0.266-0.062,0.768-0.228,0.768-0.538v-0.308c1.093,0,3.347,0.879,4.056,1.323c1.384,0.865,1.799,1.282,2.913,2.385
		c0.873,0.865,1.997,1.457,2.959,2.419c1.169,1.169,1.173,1.901,1.593,3.705c-0.981-0.656-2.296-2.429-3.393-3.288
		c-0.59-0.461-1.139-1.114-1.783-1.597c-0.265-0.198-1.82-1.318-1.89-1.413h0.384c0.144-0.214,0.308-0.265,0.308-0.614v-0.307
		c0-0.238-0.448-0.657-0.615-0.768c-0.178,0.13-0.461,0.537-0.461,0.844v0.231c0,0.207,0.036,0.212,0.077,0.383
		c-0.407-0.095-0.997-0.533-1.562-0.743c-0.34-0.126-0.37-0.227-0.785-0.366c-0.293-0.1-0.549-0.209-0.833-0.32
		c-0.789-0.311-2.827-0.722-3.888-0.722h-1.69c-0.801,0-3.417,0.5-3.84,0.769l2.839-0.184l0.694,0.029l2.306,0.221l0,0.164
		c-1.046,0.243-2.136,0.998-3.304,0.998c0.093-0.138,0.153-0.134,0.153-0.306c0-0.299-0.176-0.692-0.461-0.692H36.6l0.725,1.108
		c-1.549-0.032-2.746,0.329-3.55,1.138c-0.685,0.693-1.477,1.888-1.477,3.208v1.536c0,0.721,0.485,2.118,0.844,2.382
		c-0.2-0.854-0.615-1.518-0.615-2.689v-0.23c0-1.984,0.572-3.171,1.736-4.025c1.648-1.211,2.557-0.636,4.64-1.121
		c-0.021,0.077-0.724,1.215-0.895,1.564c-0.227,0.461-0.471,1.485-0.641,1.739v1.691h0.076c0-1.559,0.435-3.335,1.306-3.918
		c0,1.837,1.997,2.611,1.997,4.378h0.077c0-1.765-1.536-2.795-1.536-3.841v-0.537c0-0.812,1.312-1.767,2.151-1.767h1.076
		c0.644,0,1.142,0.181,1.66,0.337c0.559,0.171,1.122,0.507,1.413,0.584v0.154c-1.856,0.432-3.507,5.286-4.731,6.945
		c-0.845,1.147-1.815,2.038-2.854,2.983c-0.349,0.318-1.306,0.942-1.761,1.158c-0.897,0.427-1.317,0.359-2.56,0.359
		c0.234,0.204,0.644,0.308,1.075,0.308h0.537c2.224,0,3.98-2.112,5.166-3.285c0.621-0.613,1.391-1.601,1.799-2.426
		c0.302-0.611,1.086-2.446,1.407-2.816c0,1.998,1.082,3.031,2.095,4.051c0.549,0.554,2.514,2.707,2.514,3.554v0.384
		c0,0.456-0.202,0.65-0.384,0.921l0.384-0.153l-0.007,0.691l0.007,0.538c0,0.418,1.346,1.578,1.767,1.614l0.275-1.838l-0.044-0.16
		c0-0.694-0.569-0.943-0.999-1.23l-0.46-0.076c0.087-0.326,0.153-0.135,0.153-0.384v-0.461c0-1.922-4.609-4.688-4.609-7.221
		c0-1.069,0.596-2.611,1.613-2.611h0.153c1.857,0,5.09,3.688,6.038,4.947c1.406,1.866,3.103,4.597,3.103,7.804v1.767
		c0,1.177-0.252,2.502-0.431,3.563c-0.113,0.674-0.168,1.075-0.294,1.704c-0.073,0.368-0.266,1.474-0.274,1.722
		c-0.067,1.855-0.971,4.198-1.184,6.048c1.454-1.447,3.127,0.153,5.206,0.153c2.079,0,3.129-1.48,4.508-0.384
		c-0.34-0.406,1.741-0.496,1.741-0.496c0-1.269-2.273-7.144-2.688-8.292c-0.501-1.394-1.284-4.833-1.284-6.629v-0.922
		c0-2.579,1.099-5.518,2.215-7.003c1.319-1.753,2.878-3.213,5.929-3.213h1.152c0.172,0,0.169,0.061,0.307,0.154
		c1.002,0,1.613,0.719,1.613,1.766c0,1.126-1.229,1.746-1.229,3.765l-0.447,0.254c-0.024,0.437-0.168,0.311-0.168,0.667
		c0,0.469,0.345,1.262,0.615,1.459c0.332-0.242,0.768-1.07,0.768-1.689c0-0.339-0.296-0.617-0.614-0.691v-0.385
		c0-0.979,1.689-1.899,1.689-3.533v-0.384c1.095,0.256,1.922,2.113,1.922,3.533v0.308c0,0.917-0.188,1.479-0.487,2.124
		c-0.489,1.051-0.735,0.9-1.127,1.485c0.995-0.231,1.921-2.18,1.921-3.533v-0.768c0-2.837-2.92-5.301-5.762-5.301
		c0.118-0.103,1.497-0.51,1.822-0.637c0.486-0.19,1.304-0.651,1.712-0.746c0.104,0.222-0.153,0.213-0.153,0.614v0.308
		c0,1.236,1.83,1.767,3.073,1.767c0-0.677-0.344-1.617-0.587-2.101c-0.075-0.152-0.573-0.592-0.718-0.665
		c-0.258-0.129-0.818-0.065-1.076-0.229c1.187-0.317,2.667-1.844,4.301-1.844c1.444,0,1.921,1.786,1.921,3.303v0.308
		c0,1.654-0.83,3.352-1.41,4.507c-0.456,0.91-1.51,3.178-1.51,4.403v0.846c0,0.852,0.455,2.039,0.921,2.381
		c-0.081,0.308-0.23,0.251-0.23,0.615v0.154c0,0.785,1.094,1.382,1.843,1.382v-0.383c0-0.044-0.303-1.235-0.332-1.281
		c-0.205-0.324-0.608-0.486-1.128-0.486c-0.124-0.533-0.614-2.107-0.614-2.612v-0.922c0-0.265,0.056-0.298,0.077-0.537l0.085,0.537
		c0.201,0.314,0.792,0.834,1.298,0.846v-0.385c0-0.636-0.253-1.306-0.923-1.306c-0.008,0-0.276,0.137-0.307,0.153v-0.229
		c0.053-0.647,1.35-2.879,1.705-3.442c0.724-1.148,1.06-2.24,1.06-4.087c0.031,0.024,0.705,1.4,1.362,1.941
		c0.72,0.596,1.216,0.806,2.033,1.27c1.272,0.724,2.981,1.695,2.981,3.625v0.385c0,0.78-0.614,1.306-0.923,1.767l-0.233,0.072
		c-0.259-0.489-0.561-0.61-1.304-0.61h-0.23c-0.472,0-1.844,1.5-1.844,1.843c0,0.233,1.771,0.385,2.151,0.385h0.078
		c0.438,0,1.229-0.705,1.229-1.229v-0.308h0.153v-0.154c0.437-0.117,1.369-1.221,1.383-1.844h0.154
		c0.052,0.225,0.292,0.538,0.538,0.538h0.153l1.001-0.14c-0.028-0.326-0.627-0.935-0.923-0.935H86.99
		c-0.185,0-0.226,0.124-0.384,0.229c-0.188-2.25-1.986-2.981-3.4-4.05c-0.759-0.573-1.433-0.82-2.15-1.537
		c-0.299-0.299-1.363-1.889-1.363-2.324v-0.307c0-0.317,1.284-0.375,1.61-0.386c0.775-0.028,1.079-0.096,1.74-0.258
		c0.729-0.181,2.367-0.956,2.949-0.968h0.152v0.537c0,0.654,0.811,0.798,1.23,0.999c0-0.546,0.012-1.239-0.384-1.382v-0.221
		l0.153-0.009l0.613,0.159c-0.205-0.286-0.879-0.621-1.382-0.621c-2.094,0-3.15,1.051-4.833,1.236
		c-2.816,0.308-1.881-1.924-3.539-2.311l2.227-1.152c0.14,0.24-0.076,0.147-0.076,0.537v0.537c0,0.939,1.818,1.614,2.765,1.614
		h0.307v-0.231c0-0.373-0.479-1.718-0.652-1.958c-0.701-0.983-1.24-0.497-1.729-0.806c1.202-0.281,2.085-1,3.763-1v-0.076h-1.613
		c-0.054-0.153,0.615-0.478,0.615-0.922v-0.077c0-0.444-0.167-1.246-0.307-1.536c-0.41,0.109-1.383,1.127-1.383,1.689
		c0,0.537,0.257,0.678,0.536,0.922c-1.655,0.139-2.897,1.204-3.993,1.46c-0.281-0.093,0.154-0.36,0.154-0.922v-0.384
		c0-0.509-0.351-1.136-0.385-1.536c-0.6,0.16-1.576,1.644-1.691,1.689v0.768c0,0.316,0.452,0.606,0.539,0.835l0.384,0.086
		c-0.94,0.498-2.672,1.565-3.685,1.846c-1.258,0.349-2.814,1.038-4.382,1.074c0.017-0.062,0.721-1.298,0.845-1.537
		c0.229-0.446,0.507-1.114,0.798-1.506c0.711-0.959,1.715-1.317,2.839-1.847c1.093-0.515,2.289-0.777,3.104-1.582
		c0.521-0.513,0.689-0.625,0.988-1.394c0.125-0.321,0.154-0.675,0.244-0.908c0.117-0.306,0.478-0.278,0.478-0.674
		c0-0.395-0.445-0.91-0.691-1.075c-0.184,0.274-0.384,0.543-0.384,0.998c0,0.268,0.186,0.584,0.461,0.615
		c0,1.34-1.955,2.469-2.945,2.97c-0.51,0.257-3.805,1.715-4.199,1.715c-0.177,0-0.23-0.053-0.23-0.23v-0.383
		c0-0.46,0.251-1.366,0.352-1.876c0.148-0.756,0.443-1.181,0.57-1.659c-0.59,0.396-1.171,1.713-1.29,2.551
		c-0.079,0.555-0.172,1.207-0.168,1.753c0.003,0.575-0.233,0.984-0.233,1.611h-0.153c0,0.854-1.225,2.096-1.766,2.458
		c-0.105-0.18,0.153-0.601,0.153-1v-0.306c0-0.435-0.386-1.007-0.585-1.336c-0.09-0.149-0.623-1.124-0.645-1.199h-0.229
		c-0.125,0.466-0.541,0.676-0.706,1.215c-0.121,0.394-0.532,0.788-0.447,1.473l0.088,0.843c0.236,0.167,0.258,0.336,0.506,0.561
		c0.249,0.226,0.465,0.206,0.713,0.363c-0.009,0.006-1.595,0.436-1.8,0.505c-0.608,0.203-1.145,0.39-1.657,0.648
		c-0.526,0.263-0.993,0.486-1.506,0.798c-0.52,0.317-0.813,0.669-1.258,0.969c0.084-0.364,2.534-3.447,2.964-4.027
		c0.462-0.623,1.088-1.413,1.466-2.067c0.496-0.857,0.697-1.424,1.114-2.342c0.871-1.917,0.826-3.158,2.507-4.484
		c1.298-1.024,3.093-1.598,5.391-1.598h2.457l2.766,0.091c1.089,0.714,2.066,1.54,3.165,2.275c1.258,0.844,1.987,1.321,4.056,1.321
		c-0.092,0.139-0.154,0.134-0.154,0.307v0.307c0,0.683,0.748,0.691,1.229,0.922c0-1.136-0.006-1.083-0.614-1.613l2.93-0.967
		c-0.878-0.012-2.31,0.737-3.621,0.737h-0.229c-1.124,0-2.313-0.535-2.766-1.152c1.025-0.087,2.177-0.674,2.746-1.25
		c0.351-0.354,0.631-0.654,0.888-1.108c0.217-0.383,0.945-0.854,0.666-0.947l-0.235-1.149c-0.377,0.1-0.763,0.568-0.763,1.073v0.076
		c0,0.365,0.162,0.469,0.461,0.539l-1.689,1.459c-0.149-0.319,0.229-0.065,0.229-0.614v-0.077c0-0.877-0.175-1.404-0.46-1.997
		c-0.359,0.095-1.613,1.41-1.613,1.843v0.46c0,0.617,0.441,0.715,0.769,1l-0.488,0.154l0.027,0.076H83.38
		c-1.268,0-1.987-1.548-2.766-1.614V46.59h0.462c1.033,0,2.13-0.814,2.58-1.491c0.559-0.839,0.875-1.854,1.413-2.657
		c0.213,0.334,0.376,0.998,1,0.998l0.16,0.042l1.452-0.272c-0.081-0.301-1.266-1.383-1.538-1.383h-0.383
		c0.083-0.311,0.486-0.507,0.845-0.537c0.037,0.451,1.091,1.076,1.613,1.076h0.385c0.189,0,1.132-0.637,1.229-0.769
		c-0.269-0.367-1.156-1.228-1.767-1.228h-0.154c-0.813,0-1.474,0.951-2.227,1.151c0.101-0.374,0.46-0.552,0.46-1.151v-0.384
		c0-0.744-0.73-1.479-1.305-1.613c-0.121,0.518-0.615,1.107-0.615,1.459v0.538c0,0.252,0.303,0.679,0.487,0.819
		c0.281,0.211,0.557,0.286,0.742,0.564c-0.243,0.362-0.679,0.774-0.998,1.23c-0.271,0.389-0.628,0.924-0.941,1.286
		c-0.625,0.723-1.441,1.631-2.746,1.631h-0.229l-4.15-0.369c0.467-0.711,1.013-1.045,1.589-2.037
		c0.455-0.783,0.847-1.556,1.332-2.279c0.237,0.273,0.335,0.691,0.845,0.691h0.614c0.17,0,0.815-0.601,1.152-0.691v-0.23
		c-0.438-0.118-1.099-0.608-1.613-0.538h-0.461l1.85-1.987l0.071,0.068v0.23c0,0.159,0.459,0.538,0.613,0.538h0.769
		c0.301,0,0.009-0.116,0.461-0.154c-0.078-0.291-0.819-0.999-1.075-0.999h-0.308c0.156-0.429,1.921-1.34,1.921-2.688v-0.384
		c0-0.251-0.04-0.253-0.153-0.384c0,1.229-0.807,2.123-1.538,2.612c-0.12-0.206,0.078-0.284,0.078-0.691v-0.308
		c0-0.451-1.028-1.749-1.387-1.846l-0.522,1.233l-0.087,0.843v0.077c0,1.035,0.728,0.989,1.229,1.306
		c-0.344,0.229-0.823,0.642-1.135,0.939c-0.281,0.264-0.728,0.98-0.939,1.135c0.046-0.535,0.307-1.066,0.307-1.844v-0.768
		c0-0.733-0.402-2.347-0.654-2.881c-0.237-0.504-1.117-1.781-1.497-2.035c0.081-0.348,0.384-0.605,0.384-0.998
		c0-0.863-0.384-1.255-0.973-1.563c-0.471-0.246-1.264-0.696-1.792-0.82c0,0.859,0.054,1.592,0.278,2.259
		c0.154,0.464,1.043,1.122,1.412,1.122h0.231c0.207,0,0.212-0.036,0.372-0.074l0.089,0.15c0.669,1.266,1.613,3.17,1.613,5.07v0.769
		c0,0.158-0.257,1.125-0.307,1.228c-0.257-0.403,0.107-0.968-0.673-1.707c-0.702-0.666-0.897-0.372-1.862-0.597
		c0.03,0.372,0.284,1.793,0.465,1.993c0.767,0.854,1.386,0.282,1.915,0.618v0.23l-1.27,2.705c-0.015-0.257,0.041-0.289,0.041-0.554
		v-0.154c0-1.724-1.667-3.3-2.995-3.61c0.304,0.415,1.057,0.869,1.549,1.523c0.256,0.339,0.909,1.577,0.909,2.087v0.308
		c0,1.898-1.539,2.697-3.381,2.763c-0.493,0.018-0.68,0.158-1.382,0.155c-0.606-0.001-0.941,0.034-1.458,0.079
		c-0.81,0.071-1.719,0.456-2.306,0.766c-0.049-0.111,0.383-0.484,0.383-0.998c0-0.601-0.811-1.963-1.229-2.075
		c-0.163,0.614-0.844,1.262-0.844,2.152v0.076c0,0.581,0.552,1.103,1.152,1.153c-1.01,0.878-1.749,1.329-2.407,2.662
		c-0.563,1.142-1.064,2.238-1.588,3.406c-0.558,1.243-1.174,2.063-2.17,2.898c-0.514,0.432-0.837,0.762-1.306,1.23
		c-0.543,0.543-0.661,0.948-1.056,1.401c0.036-1.612,2.962-4.412,3.826-5.7c0.666-0.994,1.052-2.044,1.339-3.423
		c0.25-1.206,0.454-2.816,0.995-3.768c1.259-2.21,3.04-3.09,4.729-4.795c0.812-0.822,1.59-1.542,2.31-2.454
		c0.426-0.542,1.705-2.25,1.857-2.905l0.307-0.615c0.693,0,1.152-0.409,1.152-1.075v-0.461c0-0.097-0.186-0.922-0.307-0.922
		c-0.29,0-1.306,1.055-1.306,1.537v0.307c0,0.21,0.307,0.431,0.307,0.537c0,0.24-0.14,0.444-0.229,0.615
		c-0.522,0.985-1.649,2.41-2.613,2.919c0.168-0.721,0.38-1.182,0.52-2.092c0.113-0.736,0.172-1.551,0.172-2.363v-0.231
		c0-0.627-0.333-1.677-0.461-2.227c0.21-0.092,0.119,0.154,0.461,0.154c1.623,0,1.766-1.229,1.766-2.843
		c-0.478,0.253-0.999,0.449-1.511,0.716c-0.942,0.492-0.52,0.608-0.947,1.281c-0.116-0.496-0.384-1.263-0.384-1.843v-0.462
		c0-0.377,0.113-0.986,0.23-1.229l0.077,0.384c0.305,0.455,0.652,1.075,1.382,1.075h0.23c1.09,0,2.031-0.61,2.765-0.999
		c-0.227-0.43-1.845-1.698-2.537-1.63l-0.866,0.063l-0.899,0.646l0.618-1.381c0.35-0.009,0.713-0.275,0.688-0.463l-0.135-1.231
		l-0.248,0.003c-0.098,0.269-0.615,0.621-0.615,0.844v0.537c0,0.267,0.154,0.118,0.154,0.385c0,0.031-0.819,1.329-0.922,1.535
		c-0.344,0.686-0.384,1.053-0.384,2.075c-0.598-0.688-2.119-2.227-3.303-2.227h-1.151c-0.532,0-1.965,0.461-2.229,0.69
		c0.603-0.014,1.438-0.538,2.458-0.538c1.136,0,2.793,0.856,2.996,1.614c-0.414-0.278-0.855-0.615-1.535-0.615h-0.462
		c-0.922,0-1.901,1.146-2.336,1.736c-0.271,0.367-1.582,2.129-1.658,2.413c0.974-0.652,2.164-2.985,3.072-3.227h0.154v0.307
		c0,0.594,0.299,1.536,0.922,1.536h0.383c0.236,0,0.309-0.225,0.309-0.46v-0.461C68.786,28.793,67.667,28.538,67.403,28.307
		 M41.592,44.9l1.997-0.16l0.768,0.007c2.132,0,2.866,2.159,3.646,3.65c0.631,1.204,2.633,2.812,4.035,3.187
		c-0.354,0.224-0.632-0.034-1.059,0.4c-0.217,0.221-0.524,0.54-0.553,0.905c0.431,0.01,0.426,0.154,0.845,0.154h0.538
		c0.445,0,0.586-0.343,0.769-0.614l0.076-0.462c1.018,0.273,1.777,2.316,2.134,3.32c0.513,1.438,0.861,2.565,0.861,4.516
		c-0.286-0.191-1.334-1.227-1.673-1.553c-0.534-0.517-1.16-0.928-1.763-1.386c-1.216-0.927-2.401-1.864-3.247-3.129
		c0.515-0.326,1.229-0.119,1.229-1.229v-0.539l-0.086-0.688c-0.268,0.021-0.898,0.483-1.097,0.658
		c-0.681,0.598-0.216,0.804-0.506,1.261c-1.219-1.403-2.083-2.763-3.701-3.826c-1.036-0.681-4.235-1.935-4.749-2.703
		c0.4-0.347,1.613-0.159,1.613-1.153v-0.229C41.669,45.076,41.632,45.072,41.592,44.9 M38.136,71.018
		c0,0.709,1.114,1.613,1.69,1.766l0.363-2.066c-0.008-0.322-0.754-1.083-1.055-1.083h-0.462c-0.387,0-0.537,0.568-0.537,0.998
		V71.018z M35.371,72.631c0.561-0.047,1.535-0.676,1.535-1.383v-0.153c0-0.359-0.179-0.538-0.537-0.538h-0.154
		c-0.431,0-0.844,0.59-0.844,0.998V72.631z M45.817,72.784c0.743,0,1.921-0.352,1.921-0.922v-0.537c0-0.354-0.251-0.691-0.616-0.691
		h-0.383c-1.113,0-1.708,1.235-1.921,2.15H45.817z M32.067,71.708c0.771,0,1.537-0.256,1.537-0.997v-0.232
		c0-0.178-0.205-0.383-0.385-0.383h-0.076c-0.778,0-1.305,0.523-1.305,1.229v0.383H32.067z M74.776,71.555
		c0.766,0,1.46-0.274,1.46-0.998v-0.23c0-0.494-0.568-0.769-0.999-0.769h-0.23c-0.658,0-1.791,1.142-1.844,1.768
		c0.314,0.074,0.97,0.23,1.306,0.23H74.776z M71.319,70.633c0.507,0,1.076-0.621,1.076-1.153v-0.153c0-0.39-0.714-0.691-1.151-0.691
		h-0.232c-0.698,0-1.565,1.242-1.843,1.767c0.485,0.041,1.002,0.23,1.459,0.23H71.319z M44.972,68.559
		c0.161,0.306,1.031,1.613,1.382,1.613h0.538c0.384,0,1.229-0.259,1.229-0.615c0-0.521-1.065-1.46-1.459-1.46h-0.384
		C45.687,68.098,45.454,68.447,44.972,68.559 M85.992,68.79c0,0.324,1.018,0.777,1.305,0.845v-0.385
		c0-0.693-0.204-1.305-0.922-1.305c-0.179,0-0.383,0.204-0.383,0.383V68.79z M30.454,67.637c0.239,0.537,0.205,0.707,0.536,1.23
		c0.09,0.145,0.691,0.995,0.693,0.998l0.844,0.088c0.43,0.041,0.77-0.339,0.77-0.778c0-0.862-0.429-0.76-0.538-1.229l-1.91-0.372
		L30.454,67.637z M40.132,68.943c0,0.372,0.341,0.99,0.554,1.136c0.533,0.366,0.651,0.297,1.137,0.555
		c0.011-0.512,0.306-0.893,0.306-1.383v-0.23c0-0.901-0.814-1.383-1.767-1.383c-0.034,0.145-0.23,0.687-0.23,0.691V68.943z
		 M33.603,68.175c0,0.554,1.246,1,1.919,1l0.086-0.022l-0.438-1.677c-0.523-0.033-0.309-0.299-0.646-0.299h-0.613
		c-0.236,0-0.308,0.225-0.308,0.461V68.175z M84.993,67.714c0.437,0,0.998-0.604,0.998-1.076v-0.154
		c0-0.368-0.555-0.691-0.998-0.691h-0.462c-0.567,0-1.573,1.189-1.689,1.689l1.607,0.277L84.993,67.714z M47.968,66.792
		c0,0.531,0.861,0.922,1.459,0.922h0.154c0.471,0,1.278-0.637,1.766-0.768c-0.082-0.306-1.518-1.229-1.92-1.229h-0.154
		C48.532,65.717,47.968,66.058,47.968,66.792 M42.283,65.41c0,0.752,0.604,1.599,0.922,2.073c0.323-0.216,1.076-1.423,1.076-1.996
		V65.41c0-2.029-1.998-1.269-1.998-0.077V65.41z M77.771,65.87c0,0.504,0.472,0.845,0.999,0.845h0.077
		c0.375,0,1.053-0.186,1.306-0.308c-0.111-0.412-1.049-1.306-1.613-1.306h-0.154c-0.217,0-0.615,0.271-0.615,0.615V65.87z
		 M33.142,65.64c0,0.312,0.63,0.768,0.999,0.768h0.076c0.535,0,1.172-0.497,1.536-0.69c-0.219-0.327-1.137-0.922-1.69-0.922
		C33.589,64.796,33.142,65.134,33.142,65.64 M82.688,66.561c0.237-0.158,0.53-0.494,0.859-0.753c0.364-0.285,0.523-0.469,0.523-1.09
		v-0.078c0-0.498-0.428-1.381-0.845-1.381c-0.285,0-1.153,1.121-1.153,1.612C82.073,65.843,82.531,65.974,82.688,66.561
		 M38.904,65.794c0.698,0,1.69-0.433,1.69-1.229c0-0.218-0.244-0.538-0.461-0.538h-0.306c-0.667,0-1.139,1.087-1.153,1.766H38.904z
		 M72.78,65.87c0.711,0,1.229-0.94,1.229-1.767c0-0.203-0.438-0.306-0.692-0.306h-0.231l-0.997,0.089l-0.67,0.7l-0.346,1.126
		l0.785,0.005c0.266,0,0.117,0.153,0.384,0.153H72.78z M86.99,65.179c0.478,0,1.042-0.441,1.076-0.845
		c-0.513-0.043-0.651-0.307-1.306-0.307c-0.22,0-0.537,0.442-0.537,0.613v0.078c0,0.249,0.333,0.46,0.614,0.46H86.99z
		 M30.224,64.719c0.937,0,1.919-0.646,1.919-1.459v-0.154c0-0.52-0.464-0.845-0.999-0.845h-0.307c-0.916,0-2.173,1.659-2.227,2.305
		l1.456,0.182L30.224,64.719z M80.614,65.256c0.119-0.449,1.306-0.973,1.306-1.537v-0.538c0-0.418-0.542-1.069-0.844-1.229
		l-1.037,0.817c-0.049,0.372-0.192,0.493-0.192,0.95v0.153c0,0.742,0.486,0.833,0.614,1.384H80.614z M36.061,64.719
		c0.587,0,1.307-0.508,1.307-0.999v-0.077c0-0.279-0.213-0.614-0.462-0.614h-0.537c-0.682,0-1.306,0.918-1.306,1.69H36.061z
		 M32.682,63.26c0,0.291,0.465,0.69,0.845,0.69h0.23c0.501,0,1.434-0.387,1.535-0.768c-0.429-0.1-1.148-0.768-1.459-0.768h-0.076
		C33.108,62.414,32.682,62.616,32.682,63.26 M38.212,63.797c0.767,0,1.844-0.336,1.844-1.076c0-0.268-0.11-0.615-0.383-0.615h-0.385
		c-0.589,0-1.076,0.849-1.076,1.383V63.797z M64.944,62.183c0,1.418,1.948,1.532,2.918,1.998c0-1.639-0.41-3.151-2.074-3.151
		c-0.433,0-0.844,0.391-0.844,0.846V62.183z M85.761,63.26c0.466,0,1.235-1.047,1.46-1.383c-0.682-0.056-1.224-0.614-1.614-0.614
		h-0.153c-0.783,0-1.386,0.736-1.535,1.382c0.215,0.323,0.817,0.615,1.383,0.615H85.761z M77.234,63.49
		c0.45,0,1.075-0.575,1.075-0.922v-0.077c0-0.471-0.54-0.922-0.998-0.922H76.85c-0.573,0-1.738,0.931-1.843,1.382
		c0.567,0.132,1.05,0.538,1.921,0.538H77.234z M70.245,62.875c0.86,0,1.382-0.437,1.382-1.306c0-0.362-0.579-0.692-0.922-0.692
		h-0.461c-0.571,0-1.732,1.271-1.768,1.691c0.616,0.144,0.806,0.307,1.69,0.307H70.245z M30.07,60.877
		c0.135,0.205,1.03,0.846,1.382,0.846h0.076c0.479,0,0.845-0.22,0.845-0.692c0-0.344-0.589-0.691-0.999-0.691h-0.077
		C30.808,60.34,30.286,60.582,30.07,60.877 M27.227,62.951c0.727-0.194,2.228-1.649,2.228-2.611v-0.153
		c0-0.692-0.298-1.461-0.921-1.461h-0.308c-0.729,0-1.458,0.884-1.458,1.461v0.384C26.767,61.341,27.171,62.277,27.227,62.951
		 M44.895,61.646c0,1.245,1.682,1.844,2.92,1.844h0.999c-0.014-0.639-1.365-3.073-2.074-3.073h-1.152
		c-0.099,0.244-0.692,0.49-0.692,0.922V61.646z M34.92,60.877l1.31,1.364l0.073-0.053l0.422-1.167l0.123-0.986
		c0.022-0.371-0.609-1.153-1.018-1.153h-0.229c-0.402,0-0.769,0.768-0.769,1.074l-0.017,0.08L34.92,60.877z M82.227,61.262
		c0.859,0,1.328-0.478,1.705-0.983c0.225-0.302,0.952-1.332,0.983-1.705c-0.269-0.063-0.258-0.154-0.537-0.154h-1.152l-1.075,0.086
		c-0.49,0.318-1.23,0.796-1.23,1.604v0.23c0,0.434,0.566,0.922,0.999,0.922H82.227z M41.209,60.647c0.778,0,1.583-1.079,1.996-1.229
		v-0.23c-0.774-0.065-1.195-0.538-2.074-0.538h-0.154c-0.426,0-1.075,0.451-1.075,0.922v0.23c0,0.471,0.691,0.845,1.075,0.845
		H41.209z M77.771,59.188c0.406,0,1.076-0.464,1.076-0.922v-0.461c0-0.368-0.422-0.294-0.539-0.615h-0.998
		c-0.358,0-1.582,1.392-1.613,1.768c0.489,0.011,1.008,0.229,1.382,0.229H77.771z M33.681,58.574
		c0.402-0.034,0.998-0.481,0.998-0.922v-0.154c0-0.207-0.036-0.211-0.077-0.384c-0.172-0.04-0.175-0.076-0.384-0.076
		c-0.218,0-0.536,0.334-0.536,0.537V58.574z M26.474,57.877c0.552,0.018,0.789,0.542,1.676,0.542c0.368,0,0.845-0.426,0.845-0.768
		c0-0.45-0.404-0.845-0.845-0.845h-0.308c-0.293,0-1.329,0.651-1.455,0.843L26.474,57.877z M32.451,58.419
		c0.505,0.073,0.845-0.507,0.845-0.998c0-0.185-0.277-0.461-0.461-0.461h-0.537c-0.279,0-0.808,0.951-1.154,1.076v0.23
		L32.451,58.419z M88.372,57.421c0,0.917,0.659,1.613,1.614,1.613h0.767l0.845-0.087c-0.166-0.707-1.096-2.217-1.996-2.217h-0.46
		C88.918,56.73,88.372,57.181,88.372,57.421 M88.218,56.73c0.509,0,0.846-0.716,0.846-1.153V55.27
		c-0.437,0.009-1.382,0.378-1.382,0.767v0.231c0,0.207,0.036,0.211,0.076,0.384c0.174,0.039,0.177,0.076,0.384,0.076H88.218z
		 M34.217,55.501c-0.208,0-0.211,0.037-0.383,0.076c0.149,0.311,0.436,1.076,0.845,1.076h0.23c0.25,0,0.058-0.067,0.384-0.153
		c0-0.679-0.172-0.999-0.844-0.999H34.217z M71.319,54.655c0,0.397,0.525,0.922,0.923,0.922h0.307c0.615,0,0.679-0.23,1.229-0.23
		c-0.067-0.286-1.121-1.382-1.306-1.382h-0.461C71.632,53.964,71.319,54.276,71.319,54.655 M51.117,54.963
		c0,0.654,0.201,1.382,0.845,1.382h0.307c0.438,0,0.922-0.781,0.922-1.306c0-0.379-0.409-1.727-0.537-1.997
		C52.158,53.158,51.117,54.404,51.117,54.963 M82.842,53.58c0,0.889,0.793,1.766,1.689,1.766h0.77
		c-0.094-1.126-0.246-2.381-1.46-2.381H83.38c-0.265,0-0.298,0.057-0.537,0.076V53.58z M73.853,53.196l0.07,0.632l1.237,0.521
		v-0.231c0-0.567-0.218-1.382-0.692-1.382h-0.23C74.029,52.736,73.828,53.033,73.853,53.196 M58.261,53.427v0.767
		c0.469-0.04,1.075-0.493,1.075-1.076v-0.077c0-0.25-0.066-0.058-0.153-0.384h-0.384C58.454,52.658,58.261,53.03,58.261,53.427
		 M67.632,51.736c0,0.282,0.283,1.416,0.382,1.615c0.24,0.474,0.512,0.844,1.23,0.844h0.231c0.367,0,0.538-0.26,0.538-0.614v-0.692
		c0-0.684-1.539-1.382-2.382-1.382V51.736z M85.069,52.736c0,0.607,0.796,1.305,1.306,1.305h0.846l-0.033-0.088l1.416-0.525
		c-0.041-0.485-1.544-1.614-2.151-1.614h-0.384C85.628,51.813,85.069,52.345,85.069,52.736 M56.342,51.899
		c0.008,0.371,0.679,1.067,1.074,1.067h0.076c0.144,0,0.462-0.189,0.462-0.384c0-0.361-0.325-0.769-0.692-0.769l-0.233-0.017
		L56.342,51.899z M39.058,51.583v0.845c0,0.439,0.122,0.549,0.153,0.921c0.447-0.104,0.87-0.461,1.171-0.75
		c0.44-0.423,0.75-0.351,0.75-1.246v-0.076c0-0.532-0.174-0.999-0.691-0.999C39.815,50.277,39.058,50.866,39.058,51.583
		 M71.704,51.813c0,0.411,0.394,0.845,0.768,0.845c0.386,0,0.768-0.604,0.768-0.998v-0.231c0-0.271-0.587-1.216-0.923-1.306
		C72.173,50.75,71.704,50.888,71.704,51.813 M88.526,49.816v0.461c0,0.286,0.145,0.53,0.358,0.64
		c0.199,0.104,0.529,0.359,0.64,0.359l0.328-0.002l-0.098-1.151c-0.411-0.111-0.114-0.383-0.69-0.383H88.91
		C88.789,49.74,88.619,49.78,88.526,49.816 M74.853,50.123v0.384c0,0.299,0.293,0.692,0.538,0.692h0.076
		c0.414,0,0.845-0.465,0.845-0.769v-0.383c0-0.528-0.248-1.171-0.538-1.383C75.551,48.814,74.853,49.755,74.853,50.123 M79.769,50.2
		l-0.024,0.298l-0.206,0.624h0.615c0.28,0,1.34-0.281,1.538-0.382c0.414-0.214,0.764-0.533,0.764-1.156v-0.154
		c0-0.238-0.451-0.613-0.767-0.613h-0.384C80.388,48.818,80.154,49.626,79.769,50.2 M68.861,49.048c0,0.708,0.306,1.767,0.922,1.767
		h0.308c0.364,0,0.615-0.312,0.615-0.614c0-0.907-0.945-1.613-1.844-1.613V49.048z M28.15,50.354v0.845
		c0,0.249,0.066,0.057,0.153,0.384c0.391-0.008,0.913-0.503,1.186-0.736c0.373-0.319,0.735-0.592,0.735-1.263v-0.076
		c0-0.393-0.275-0.922-0.615-0.922h-0.231C28.464,48.587,28.15,49.406,28.15,50.354 M47.046,50.969c0.574,0,0.922-0.615,0.922-1.229
		v-0.309c0-0.396-0.137-0.832-0.384-0.998c-0.439,0.295-1.229,1.05-1.229,1.767c0,0.239,0.363,0.769,0.615,0.769H47.046z
		 M24.769,49.97c0.42,0.009,0.543,0.153,0.999,0.153h0.922c0.661,0,1.613-0.737,1.613-1.229v-0.537c0-0.397-0.561-0.767-0.768-0.767
		h-0.385C26.201,47.59,24.931,49.276,24.769,49.97 M90.37,49.048c0,0.534,0.697,1,1.229,1c0.645,0,1.814-0.842,2.074-1.229
		c-0.156-0.215-1.248-0.769-1.614-0.769h-0.768C90.839,48.049,90.37,48.51,90.37,49.048 M87.221,48.511v0.536
		c0,0.201,0.274,0.383,0.383,0.383c0.304,0,0.615-0.348,0.615-0.69v-0.076c0-0.4-0.149-0.751-0.383-0.923
		C87.721,47.818,87.221,48.364,87.221,48.511 M72.087,48.433v0.461c0,0.4,0.844,0.769,1.307,0.769h0.307
		c0.215,0,0.935-0.635,1.12-0.8c0.322-0.288,0.758-0.621,0.797-1.099l-2.071-0.328h-0.23C72.867,47.435,72.087,48.101,72.087,48.433
		 M89.064,48.587v0.077c0,0.249,0.278,0.383,0.537,0.383c0.214,0,0.538-0.324,0.538-0.536V48.28c0-0.448-0.045-0.883-0.308-1.075
		C89.463,47.451,89.064,47.951,89.064,48.587 M45.049,47.819c0.659,0,1.69-0.439,1.69-1.152c0-0.267-0.11-0.614-0.384-0.614h-0.231
		c-0.711,0-1.306,0.842-1.306,1.382v0.383H45.049z M48.813,47.665v0.231c0,0.452,0.367,0.845,0.845,0.845
		c1.332,0,1.844-1.312,1.844-2.612v-0.691C50.311,45.465,48.813,46.41,48.813,47.665 M35.523,46.59v0.153
		c0,0.344,0.398,0.616,0.616,0.616c0.327,0,0.538-0.398,0.538-0.768c0-0.286-0.534-0.993-0.846-1.076
		C35.793,45.967,35.523,46.053,35.523,46.59 M33.297,46.667v0.615c0.331,0.133,0.119,0.46,0.844,0.46
		c0.445,0,0.691-0.449,0.691-0.844v-0.077c0-0.771-0.753-1.194-0.844-1.536h-0.23C33.641,45.78,33.297,46.074,33.297,46.667
		 M56.725,46.436v0.154c0,0.236,0.225,0.307,0.46,0.307h0.154c0.363,0,0.324-0.155,0.595-0.311l0.173-1.149
		C57.521,45.45,56.725,45.82,56.725,46.436 M25.307,46.436c0.66,0.153,1.59,0.923,2.612,0.923c0.676,0,1.536-0.671,1.536-1.229
		v-0.153c0-0.555-0.95-1.152-1.459-1.152h-0.308C27.192,44.823,25.401,46.081,25.307,46.436 M41.746,46.821l1.613,0.153
		c0.364,0.045,1.306-0.795,1.306-1.306v-0.691c-0.241-0.02-0.273-0.076-0.538-0.076h-0.538C42.472,44.9,41.827,45.847,41.746,46.821
		 M29.84,45.438c0.246,0,0.691-0.124,0.691-0.384v-0.23c0-0.896-1.02-1.076-1.92-1.076C28.624,44.361,29.216,45.438,29.84,45.438
		 M87.989,44.133l-0.078,0.844v0.384c0.173,0.041,0.177,0.077,0.384,0.077h0.538c1.277,0,1.527-1.197,1.768-2.228
		c-0.312,0.026-1.406,0.035-1.679,0.09C88.292,43.424,88.361,43.997,87.989,44.133 M80.644,43.258l-0.184,0.028
		c-0.01,0.489-0.23,0.486-0.23,0.999v0.307c0,0.45,0.517,1.075,0.923,1.075h0.077c0.436,0,0.997-0.669,0.997-1.075v-0.23
		c0-0.71-0.599-1.808-0.99-2.069L80.644,43.258z M78.08,43.748v0.077c0,0.297,0.354,0.321,0.461,0.614h0.537
		c0.388,0,0.407-0.124,0.768-0.154c-0.039-0.467-0.646-0.999-1.152-0.999C78.413,43.287,78.08,43.499,78.08,43.748 M73.394,42.98
		c0,0.866,0.259,1.997,1.075,1.997h0.155c0.326,0,0.614-0.286,0.614-0.538v-0.306c0-0.798-1.045-1.384-1.843-1.384V42.98z
		 M30.992,43.748c0,0.407,0.278,0.999,0.691,0.999c0.264,0,0.297-0.056,0.538-0.078c0.049-0.211,0.306-0.691,0.306-0.767v-0.076
		c0-0.608-0.601-1.503-1.075-1.614C31.347,42.663,30.992,43.235,30.992,43.748 M70.014,43.595v0.153
		c0,0.585,0.451,1.536,0.921,1.536h0.384c0.647,0,1.306-0.644,1.306-1.229V43.44c0-0.46-0.836-2.373-1.076-2.535
		C71.065,41.23,70.014,42.752,70.014,43.595 M33.049,40.98l0.016,1c0,0.876,0.74,1.767,1.613,1.767c0.569,0,0.999-0.565,0.999-1.076
		v-0.23c0-0.413-0.708-1.184-0.997-1.385c-0.211-0.147-1.339-0.903-1.528-0.919L33.049,40.98z M39.058,41.981
		c0,0.479,0.396,1.076,0.769,1.076c0.414,0,0.843-0.465,0.843-0.767v-0.385c0-0.385-0.747-1.215-0.997-1.383
		C39.493,40.653,39.058,41.668,39.058,41.981 M58.644,41.981c-0.082,0.308-0.229,0.252-0.229,0.615v0.231
		c0,0.18,0.127,0.306,0.307,0.306h0.308c0.546,0,0.767-0.661,0.767-1.229v-0.23h-0.23C59.387,41.674,59.18,41.969,58.644,41.981
		 M44.421,40.586l0.013,0.397c-0.107,0.161-0.307,0.51-0.307,0.769v0.153c0,0.403,0.369,0.922,0.768,0.922
		c0.44,0,0.769-0.492,0.769-0.922c0-0.537-0.648-1.427-0.985-1.601L44.421,40.586z M46.662,42.211
		c0.676-0.014,1.843-0.357,1.843-0.998c0-0.311-0.083-0.692-0.384-0.692h-0.384C47.047,40.521,46.662,41.464,46.662,42.211
		 M73.47,41.827l0.768,0.077c0.139,0.093,0.136,0.153,0.308,0.153h0.922c0.523,0,1.074-0.469,1.074-1.075v-0.154
		c0-0.414-0.379-0.691-0.768-0.691H75.16C74.608,40.138,73.515,41.301,73.47,41.827 M64.559,41.29v0.306
		c0,0.494,0.771,1.384,1.229,1.384c0.395,0,0.769-0.952,0.769-1.306v-0.538c0-0.493-0.927-1.295-1.306-1.382
		C65.21,40.239,64.559,40.951,64.559,41.29 M82.305,41.444c0,0.423,0.05,1.166,0.231,1.38c0.201,0.238,0.615,0.54,1.073,0.54h0.231
		c0.281,0,0.615-0.532,0.615-0.845c0-1.145-1.263-1.867-2.15-2.074V41.444z M30.761,40.444l-0.029,0.157l0.183,1.456
		c0.452-0.037,1.92-1.215,1.92-1.689v-0.384c0-0.483-0.204-0.922-0.692-0.922h-0.077C31.316,39.062,30.761,39.664,30.761,40.444
		 M42.283,40.521v0.076c0,0.484,0.205,0.922,0.692,0.922h0.076c0.324,0,0.845-0.574,0.845-0.922c0-0.448-0.305-1.441-0.538-1.612
		C43.102,39.174,42.283,40.121,42.283,40.521 M57.954,38.909v0.614c0,0.322,0.34,0.768,0.613,0.768h0.076
		c0.186,0,0.462-0.276,0.462-0.461v-0.307c0-0.488-0.653-1.117-1.076-1.152C58.011,38.61,57.954,38.644,57.954,38.909
		 M74.008,39.523l0.076,0.691c0.378-0.032,0.922-0.401,0.922-0.846v-0.307c0-0.179-0.127-0.307-0.307-0.307h-0.383
		C74.222,39.014,73.944,39.095,74.008,39.523 M52.884,40.138v0.306c0,0.327,0.475,0.538,0.845,0.538h0.308
		c0.583,0,1.414-1.201,1.69-1.614c-0.31-0.071-0.384-0.23-0.691-0.23h-1.307C53.414,39.139,52.884,39.732,52.884,40.138
		 M66.788,39.83v0.154c0,0.451,0.448,1.076,0.921,1.076h0.153c0.512,0,0.924-0.613,0.924-1.153v-0.153
		c0-0.648-0.987-1.871-1.46-1.998C67.263,38.512,66.788,38.684,66.788,39.83 M35.139,39.677h0.077c0.363,0,0.306-0.148,0.614-0.231
		v-0.307c0-0.963-0.725-1.076-1.689-1.076h-0.229C33.923,38.588,34.525,39.677,35.139,39.677 M74.853,37.833v0.307
		c0,0.181,0.128,0.308,0.308,0.308h0.231c0.495,0,0.845-0.554,0.845-0.998v-0.384h-0.231C75.712,37.065,74.853,37.519,74.853,37.833
		 M45.74,37.449c0,0.524,0.338,1.075,0.845,1.075h0.154c0.296,0,0.537-0.562,0.537-0.845v-0.307c0-0.448-0.72-1.273-0.998-1.459
		C46.146,36.187,45.74,37.118,45.74,37.449 M27.227,37.756c0.33,0.491,1.645,1.69,2.382,1.69h0.615c0.45,0,1.305-0.479,1.305-0.999
		V37.91c0-0.49-0.845-1.075-1.459-1.075h-0.23C29.126,36.835,27.496,37.39,27.227,37.756 M38.366,35.375
		c-0.128,0.112-0.369,0.264-0.479,0.366c-0.254,0.233-0.026,0.254-0.289,0.556l0.166,2.092l1.396-0.869l0.051,0.083
		c0,1.485,0.097,3.226,1.536,3.226h0.692c0.111-0.307,0.385-0.347,0.385-0.768v-0.845c0-0.877-1.696-1.743-2.458-1.92v-0.23
		c0.244-0.089,0.383-0.45,0.383-0.769c0-0.407-0.274-0.998-0.613-0.998h-0.231C38.639,35.298,38.606,35.355,38.366,35.375
		 M49.504,38.063h0.23c0.317,0,0.533-0.23,1.076-0.23c0.133-0.37,0.615-0.256,0.615-0.844v-0.078c0-0.371-0.243-0.614-0.615-0.614
		h-0.077C49.968,36.296,49.519,37.358,49.504,38.063 M31.837,36.758v0.461c0,0.363,0.364,0.921,0.691,0.921h0.461
		c0.09-0.335,0.384-0.417,0.384-0.844v-0.385c0-0.171-0.835-1.306-0.921-1.306C32.002,35.605,32.196,36.613,31.837,36.758
		 M83.918,36.45c0,0.354,0.395,0.845,0.691,0.845h0.154c0.366,0,0.752-0.113,0.998-0.23c-0.131-0.561-0.677-0.999-1.383-0.999
		h-0.076C84.114,36.066,83.918,36.412,83.918,36.45 M42.36,35.989v0.077c0,0.43,0.226,0.844,0.615,0.844
		c0.492,0,0.922-0.555,0.922-1.075v-0.076c0-0.343-0.388-1.069-0.462-1.383h-0.229C43.062,34.913,42.36,35.137,42.36,35.989
		 M74.316,36.143v0.076c0,0.347,0.354,0.691,0.614,0.691h0.153c0.308,0,0.701-0.16,1-0.23c-0.064-0.271-0.627-0.921-0.923-0.921
		H74.7C74.52,35.759,74.316,35.964,74.316,36.143 M61.102,35.298v0.307c0,0.424,0.275,0.922,0.615,0.922h0.231
		c0.424,0,0.691-0.526,0.691-0.922v-0.153c0-0.298-0.79-1.383-1.076-1.459C61.52,34.082,61.102,35.247,61.102,35.298 M84.224,35.068
		v0.076c0,0.27,0.341,0.307,0.615,0.307h0.154c1.838,0,1.51-0.747,2.073-1.92C85.562,33.532,84.224,33.19,84.224,35.068
		 M48.198,34.76l-0.076,0.845v0.154c0,0.258,0.344,0.613,0.691,0.613h0.153c0.519,0,1.306-0.55,1.306-1.075v-0.23h0.154v-1.613
		C49.719,33.513,48.693,34.428,48.198,34.76 M57.186,35.759c0.257,0,0.538-0.136,0.538-0.385v-0.23c0-0.985-0.979-1.44-1.844-1.46
		C55.88,34.65,56.214,35.759,57.186,35.759 M34.756,34.376c0.462,0.245,1.496,1.153,2.074,1.153h0.153
		c0.677,0,1.306-0.343,1.306-0.998c0-0.529-0.723-1.153-1.229-1.153H36.6c-0.34,0-0.784,0.224-1.016,0.368
		C35.179,33.996,34.864,33.908,34.756,34.376 M75.961,34.577c-0.019,0.547,1.218,1.873,1.965,1.873h0.078
		c0.445,0,0.997-0.356,0.997-0.691v-0.078c0-0.647-0.656-1.382-1.305-1.382l-1.417,0.064L75.961,34.577z M74.085,35.221h0.153
		c0.237,0,0.308-0.224,0.308-0.461v-0.077c0-0.41-0.838-0.681-1.306-0.691C73.253,34.567,73.484,35.221,74.085,35.221
		 M52.116,35.144c0,0.371,0.219,0.692,0.615,0.692h0.153c0.906,0,1.153-1.028,1.153-1.997
		C53.232,33.905,52.116,34.301,52.116,35.144 M40.056,34.223c0,0.784,0.657,1.613,1.459,1.613h0.077c0.411,0,0.844-0.777,0.844-1.23
		c0-0.797-0.223-1.032-0.552-1.52c-0.172-0.256-0.736-1.102-0.984-1.168C40.743,32.597,40.056,33.318,40.056,34.223 M46.585,34.068
		v0.463c0,0.257,0.344,0.613,0.691,0.613h0.23c0.28,0,0.538-0.544,0.538-0.845c0-0.514-0.256-1.269-0.646-1.343l-0.352-0.347
		C46.921,32.872,46.585,33.721,46.585,34.068 M82.38,33.147v0.076c0,0.623,0.82,1.307,1.461,1.307c0.273,0,0.461-0.521,0.461-0.769
		v-0.768c0-0.845-0.876-1.359-1.537-1.536C82.717,32.033,82.38,32.352,82.38,33.147 M38.212,33.532v0.23
		c0,0.473,0.345,0.521,0.461,0.844h0.307c0.499,0,0.768-0.492,0.768-0.998v-0.385c-0.348-0.141-0.521-1.137-1.152-1.152
		C38.587,32.511,38.212,33.196,38.212,33.532 M78.617,32.38v0.537c0,0.414,0.413,0.922,0.844,0.922h0.307
		c0.98,0,1.146-0.722,1.537-1.306c0-0.501,0.153-0.487,0.153-0.921v-1.614c-0.535,0.013-1.437,0.552-1.797,0.815
		C79.126,31.202,78.617,31.491,78.617,32.38 M46.508,32.532c0.832-0.018,1.844-0.318,1.844-1.152c0-0.352-0.204-0.537-0.537-0.537
		C46.953,30.843,46.508,31.677,46.508,32.532 M64.406,31.611l-0.013,0.636l1.243,0.593v-0.383c0-0.584-0.197-1.153-0.768-1.153
		h-0.155C64.534,31.303,64.406,31.431,64.406,31.611 M62.421,30.645c-0.084,0.278-0.242,0.326-0.242,0.505v0.153
		c0,0.236,0.07,0.461,0.306,0.461h0.154c0.638,0,0.908-0.83,0.901-1.519L62.421,30.645z M39.594,29.921
		c0.096,0.409,1.047,1.69,1.691,1.69h0.307c0.302,0,1.152-0.36,1.152-0.615c0-0.54-1-1.46-1.535-1.46h-0.385
		C40.487,29.536,39.996,29.887,39.594,29.921 M51.04,30.535c0,0.178,0.086,0.462,0.231,0.462c0.939,0,1.152-0.532,1.152-1.46
		C51.789,29.589,51.04,29.838,51.04,30.535 M43.896,31.227c0.118,0.057,1.399,0.537,1.459,0.537h0.461
		c0.439,0,1.229-0.875,1.229-1.46c0-0.329-0.831-0.537-1.229-0.537h-0.307C44.761,29.767,44.032,30.646,43.896,31.227 M57.34,29.691
		v0.076c0,0.259,0.136,0.537,0.384,0.537c0.535,0,0.991-0.36,0.939-0.924l-0.095-0.843C58.135,28.638,57.34,29.19,57.34,29.691
		 M60.229,29.916c-0.033,0.447,0.548,1.004,0.951,1.004c0.463,0,0.692-0.461,0.692-0.923v-0.076c0-0.486-1-1.345-1.447-1.382
		L60.229,29.916z M43.205,29.921v0.23c0,0.208,0.205,0.308,0.384,0.308c0.398,0,0.692-0.441,0.692-0.845v-0.385
		C43.774,29.229,43.205,29.437,43.205,29.921 M48.122,28.691h-0.231c-0.045,0.418-0.23,0.125-0.23,0.615v0.462
		c0.206,0.049,0.146,0.076,0.307,0.076c0.621,0,0.768-0.675,0.768-1.307C48.359,28.569,48.455,28.691,48.122,28.691 M52.807,27.845
		v0.462c0,0.258,0.135,0.538,0.384,0.538h0.307c0.432,0,0.921-0.604,0.921-1v-0.768c0-0.298-0.141-0.015-0.153-0.538
		C53.874,26.632,52.807,27.416,52.807,27.845 M61.948,29.152l1.068-0.17l0.544-0.215c0.028-0.333,0.231-0.432,0.231-0.923
		c0-0.195-0.167-0.46-0.384-0.46h-0.23C62.351,27.385,61.948,28.352,61.948,29.152 M42.744,28.076
		c0.139,0.207,1.039,0.615,1.229,0.615h0.153c0.434,0,0.999-0.353,0.999-0.692v-0.076c0-0.453-0.417-0.692-0.845-0.692
		C43.858,27.23,42.899,27.845,42.744,28.076 M45.893,27.999v0.154c0,0.295,0.243,0.615,0.461,0.615c0.547,0,1.152-0.401,1.152-0.923
		V27c0-0.264-0.056-0.298-0.076-0.537C46.907,26.585,45.893,27.29,45.893,27.999 M49.734,27.923c0,0.235,0.072,0.462,0.308,0.462
		l0.425,0.013l0.433-1.289l-0.09-0.031C50.413,27.111,49.734,27.468,49.734,27.923 M64.022,27.769v0.154
		c0,0.568,0.826,0.887,1.307,0.999v-0.615c0-0.349-0.379-0.999-0.691-0.999H64.33C64.093,27.307,64.022,27.533,64.022,27.769
		 M40.44,26.693v0.077c0,1.024,0.629,1.42,1.459,1.614c0.304-0.204,0.537-0.882,0.537-1.384c0-0.822-0.809-1.713-1.459-1.766
		C40.941,25.678,40.44,26.554,40.44,26.693 M55.572,27.462c0,0.258,0.136,0.537,0.384,0.537c0.591,0,1.077-0.56,1.077-1.076v-0.461
		C56.513,26.506,55.572,26.901,55.572,27.462 M65.712,27.462v0.768c0.389-0.032,0.999-0.5,0.999-0.844v-0.308
		c0-0.159-0.225-0.384-0.308-0.384C65.927,26.693,65.712,26.97,65.712,27.462 M51.425,26.847V27c0,0.157,0.248,0.538,0.461,0.538
		h0.383c0.33,0,0.57-0.465,0.769-0.538l0.03-0.696l-0.184-1.07C52.381,25.276,51.425,26.155,51.425,26.847 M44.588,25.54v0.769
		c0,0.285,0.551,0.921,0.768,0.921c0.587,0,1.229-1.07,1.229-1.69v-0.306c0-0.175-0.582-1.023-0.692-1.229
		C45.646,24.186,44.588,25.164,44.588,25.54 M68.093,25.771v0.23c0,0.179,0.205,0.385,0.383,0.385c0.372,0,0.615-0.243,0.615-0.616
		c0-0.366-0.155-0.597-0.23-0.922h-0.384C68.386,25.192,68.093,25.351,68.093,25.771 M71.396,25.771h0.23
		c0.207,0,0.307-0.204,0.307-0.384c0-0.693-0.625-0.922-1.306-0.922C70.628,25.048,70.851,25.771,71.396,25.771 M60.181,24.773
		c0,0.56-0.154,0.563-0.154,0.998v0.153c0,0.373,0.356,0.846,0.768,0.846h0.153c0.34,0,0.462-0.488,0.462-0.846
		c0-0.414-0.701-1.228-0.923-1.228C60.469,24.697,60.206,24.763,60.181,24.773 M64.79,25.31c0,0.59,0.485,0.999,0.999,0.999
		c0.641,0,1.135-0.487,1.615-0.615c-0.12-0.448-1.115-0.634-1.231-0.922h-0.536C65.341,24.773,64.79,25.14,64.79,25.31
		 M61.794,24.926c0,0.346,0.146,0.769,0.461,0.769h0.076c0.208,0,0.212-0.037,0.384-0.077c0.04-0.172,0.077-0.176,0.077-0.384V25.08
		c0-0.333-0.434-0.93-0.691-0.999C62.05,24.276,61.794,24.744,61.794,24.926 M56.648,24.926c0,0.449,0.396,0.845,0.844,0.845H57.8
		c0.04-0.173,0.077-0.176,0.077-0.384v-0.23c0-0.245-0.723-0.615-0.844-0.615h-0.385V24.926z M49.734,24.466v0.231
		c0,0.247,0.279,0.383,0.538,0.383h0.46c0.556,0,1.168-0.976,1.385-1.396l-1-0.14h-0.614C50.104,23.544,49.734,23.959,49.734,24.466
		 M55.649,23.698c0,0.093,0.16,0.23,0.307,0.23h0.231c0.505,0,1.114-0.692,1.153-1.152h-0.538
		C56.144,22.776,55.649,23.057,55.649,23.698 M57.57,23.314v0.461c0,0.367,0.26,0.537,0.614,0.537h0.23
		c0.056-0.241,0.229-0.451,0.229-0.614c0-0.453-0.427-1.041-0.844-1.076C57.768,23.01,57.57,23.159,57.57,23.314"/>
	<path clip-path="url(#SVGID_2_)" d="M8.037,75.712l6.131-5.25c0.365-0.315,0.601-0.539,0.708-0.673
		c0.219-0.308,0.274-0.611,0.164-0.909l0.241-0.074l0.986,3.227l-0.24,0.074c-0.209-0.591-0.449-0.846-0.718-0.764
		c-0.16,0.05-0.452,0.254-0.877,0.616l-0.937,0.784l1.014,3.316c0.369,0.035,0.74,0.069,1.11,0.102
		c0.521,0.045,0.873,0.038,1.06-0.02c0.354-0.108,0.443-0.449,0.269-1.022l0.241-0.073l0.766,2.506l-0.24,0.073
		c-0.132-0.338-0.448-0.573-0.949-0.706c-0.253-0.071-0.84-0.153-1.765-0.249l-6.885-0.704L8.037,75.712z M10,75.61l3.925,0.392
		l-0.894-2.924L10,75.61z M50.028,10.624l3.979-0.489l-0.359-2.929c-0.066-0.534-0.485-0.754-1.255-0.659l-0.031-0.249l3.651-0.448
		l0.031,0.249c-0.771,0.095-1.122,0.409-1.057,0.944l0.809,6.593c0.067,0.535,0.484,0.755,1.254,0.661l0.031,0.249l-3.652,0.448
		l-0.031-0.25c0.771-0.094,1.124-0.409,1.058-0.943l-0.383-3.126l-3.98,0.489l0.384,3.126c0.065,0.534,0.483,0.755,1.254,0.66
		l0.032,0.249l-3.652,0.449l-0.031-0.25c0.77-0.094,1.123-0.409,1.057-0.943l-0.809-6.593c-0.066-0.534-0.485-0.754-1.254-0.66
		L47.043,6.95l3.652-0.448l0.029,0.25c-0.77,0.094-1.123,0.409-1.057,0.943L50.028,10.624z M105.001,33.369l-5.435,3.821
		c-0.44,0.309-0.438,0.781,0.007,1.417l-0.206,0.144l-2.11-3.014l0.206-0.143c0.445,0.635,0.888,0.799,1.329,0.49l5.301-3.711
		l-8.111,1.544l-0.107-0.152l4.013-6.866l-5.051,3.539c-0.44,0.309-0.415,0.813,0.075,1.514l-0.205,0.144l-1.807-2.58l0.207-0.144
		c0.49,0.701,0.956,0.898,1.396,0.59l5.443-3.812c0.44-0.309,0.42-0.807-0.06-1.493l0.205-0.144l1.503,2.146l-3.721,6.34
		l7.152-1.438l1.51,2.157l-0.205,0.144C105.884,33.223,105.441,33.06,105.001,33.369"/>
	<path clip-path="url(#SVGID_2_)" d="M9.263,65.226l4.413-0.542c0.306-0.038,0.511-0.143,0.615-0.316
		c0.103-0.173,0.138-0.506,0.103-0.999l0.184-0.023l0.42,3.415l-0.184,0.022c-0.078-0.426-0.191-0.705-0.336-0.84
		c-0.146-0.132-0.367-0.181-0.665-0.144l-4.414,0.541l0.132,1.077l-0.421,0.051l-0.132-1.076c-0.491,0.06-0.915,0.076-1.273,0.048
		c-0.539-0.04-1.003-0.234-1.392-0.582c-0.39-0.347-0.617-0.789-0.682-1.323C5.543,63.812,5.737,63.298,6.216,63
		c0.158-0.02,0.301,0.013,0.431,0.093c0.131,0.083,0.205,0.198,0.223,0.347c0.033,0.263-0.066,0.475-0.295,0.636
		c-0.285,0.203-0.452,0.37-0.498,0.501c-0.074,0.196-0.058,0.371,0.051,0.527c0.09,0.229,0.279,0.356,0.567,0.384
		c0.144,0.018,0.396,0.004,0.756-0.04l1.393-0.17l-0.196-1.589l0.421-0.052L9.263,65.226z M8.98,58.618l4.446,0.077
		c0.309,0.006,0.525-0.07,0.652-0.227c0.126-0.157,0.206-0.481,0.242-0.976l0.186,0.004l-0.061,3.44l-0.186-0.004
		c-0.02-0.432-0.091-0.724-0.216-0.877c-0.125-0.153-0.338-0.23-0.636-0.236l-4.446-0.077l-0.019,1.085l-0.424-0.008l0.019-1.084
		c-0.493-0.009-0.917-0.051-1.268-0.128c-0.528-0.115-0.96-0.372-1.298-0.771c-0.338-0.398-0.501-0.866-0.492-1.404
		c0.013-0.732,0.277-1.213,0.794-1.442c0.158,0.002,0.296,0.053,0.413,0.153c0.117,0.099,0.174,0.222,0.173,0.373
		c-0.005,0.265-0.132,0.462-0.381,0.59c-0.312,0.161-0.5,0.304-0.563,0.425c-0.101,0.184-0.108,0.361-0.022,0.53
		C5.95,58.3,6.12,58.453,6.401,58.52c0.14,0.036,0.391,0.059,0.752,0.066l1.403,0.025l0.029-1.602l0.423,0.007L8.98,58.618z
		 M9.11,51.12c0.152-0.86,0.542-1.515,1.167-1.965c0.625-0.45,1.364-0.599,2.215-0.448c0.887,0.155,1.592,0.549,2.118,1.178
		c0.554,0.663,0.754,1.432,0.6,2.311c-0.144,0.817-0.563,1.442-1.258,1.874c-0.664,0.42-1.402,0.56-2.209,0.416
		c-0.895-0.157-1.59-0.531-2.088-1.119C9.139,52.738,8.957,51.988,9.11,51.12 M14.86,51.892c0.084-0.477-0.08-0.892-0.493-1.243
		c-0.366-0.314-0.857-0.527-1.474-0.636c-0.765-0.134-1.448-0.125-2.048,0.029c-0.799,0.208-1.256,0.644-1.372,1.304
		c-0.082,0.459,0.047,0.852,0.383,1.176c0.337,0.323,0.801,0.537,1.392,0.641c0.965,0.171,1.769,0.155,2.413-0.044
		C14.355,52.9,14.754,52.492,14.86,51.892 M15.365,45.962l-2.711-0.986c-0.456-0.166-0.784-0.245-0.983-0.238
		c-0.2,0.007-0.333,0.102-0.4,0.284c-0.038,0.107-0.069,0.266-0.088,0.474l-0.199-0.072l0.064-2.229l1.12,0.407
		c-0.586-0.71-0.787-1.319-0.604-1.824c0.196-0.54,0.555-0.672,1.074-0.398c0.245,0.127,0.312,0.344,0.201,0.65
		c-0.058,0.158-0.187,0.287-0.388,0.388c-0.201,0.101-0.318,0.196-0.35,0.287c-0.046,0.125,0.014,0.327,0.179,0.609
		c0.165,0.28,0.335,0.452,0.508,0.516l2.961,1.077c0.281,0.102,0.506,0.111,0.674,0.027c0.166-0.086,0.328-0.306,0.486-0.661
		l0.174,0.063l-1.064,2.922l-0.175-0.063c0.109-0.374,0.126-0.648,0.052-0.819C15.825,46.202,15.647,46.065,15.365,45.962
		 M12.593,32.558l6.917,3.677c0.187,0.1,0.347,0.074,0.476-0.076c0.052-0.062,0.149-0.235,0.291-0.52l0.188,0.099
		c-0.148,0.711-0.242,1.421-0.279,2.131l-0.853-0.453c0.162,0.276,0.245,0.593,0.251,0.95c0.006,0.357-0.069,0.681-0.222,0.969
		c-0.366,0.685-0.918,1.086-1.658,1.202c-0.677,0.109-1.368-0.022-2.069-0.396c-0.732-0.389-1.268-0.959-1.608-1.709
		c-0.371-0.806-0.364-1.572,0.021-2.297c0.277-0.521,0.645-0.835,1.101-0.943l-1.659-0.882c-0.374-0.199-0.609-0.273-0.705-0.224
		c-0.055,0.03-0.186,0.236-0.388,0.618l-0.223-0.118c0.075-0.271,0.165-0.657,0.272-1.16L12.593,32.558z M18.678,37.066l-2.15-1.143
		c-0.997-0.53-1.711-0.39-2.141,0.419c-0.244,0.46-0.208,0.945,0.111,1.454c0.281,0.449,0.718,0.831,1.309,1.146
		c0.748,0.397,1.41,0.557,1.987,0.479c0.575-0.079,0.992-0.359,1.249-0.841c0.165-0.311,0.199-0.618,0.101-0.922
		C19.059,37.383,18.904,37.187,18.678,37.066 M21.769,28.418l2.17,1.758c0.213,0.172,0.382,0.18,0.511,0.022
		c0.105-0.131,0.167-0.369,0.188-0.717l0.268,0.217c0.118,0.596,0.073,1.024-0.137,1.285c-0.389,0.48-0.85,0.516-1.382,0.108
		c0.049,1.004-0.096,1.715-0.434,2.134c-0.245,0.302-0.556,0.472-0.934,0.513c-0.379,0.04-0.719-0.063-1.02-0.307
		c-0.378-0.305-0.582-0.725-0.614-1.262c-0.031-0.411,0.039-0.917,0.207-1.518c0.146-0.461,0.292-0.922,0.438-1.382
		c-0.487-0.395-0.828-0.632-1.025-0.712c-0.42-0.182-0.775-0.094-1.063,0.262c-0.283,0.35-0.368,0.651-0.255,0.902
		c0.026,0.066,0.1,0.143,0.222,0.231c0.244,0.175,0.367,0.262,0.367,0.262c0.117,0.094,0.184,0.226,0.201,0.393
		c0.018,0.167-0.021,0.31-0.116,0.426c-0.25,0.309-0.516,0.349-0.797,0.121c-0.122-0.1-0.219-0.24-0.289-0.421
		c-0.281-0.705-0.096-1.459,0.554-2.261c0.449-0.556,0.89-0.834,1.323-0.836C20.586,27.636,21.125,27.896,21.769,28.418
		 M23.066,30.917l-1.758-1.424c-0.1,0.305-0.202,0.615-0.308,0.926c-0.117,0.382-0.159,0.701-0.125,0.955
		c0.042,0.34,0.204,0.624,0.484,0.852c0.241,0.195,0.483,0.295,0.728,0.3c0.277,0.008,0.509-0.104,0.698-0.337
		c0.095-0.117,0.181-0.325,0.26-0.625C23.124,31.264,23.131,31.049,23.066,30.917 M25.135,24.352l2.031,2.176
		c0.127,0.161,0.244,0.243,0.357,0.247c0.049,0.002,0.2-0.037,0.454-0.116c0.252-0.078,0.484-0.217,0.698-0.416
		c0.438-0.409,0.596-0.899,0.472-1.471c-0.108-0.466-0.382-0.934-0.822-1.406c-0.457-0.49-0.929-0.827-1.415-1.013
		c-0.629-0.234-1.163-0.147-1.601,0.262C24.67,23.211,24.612,23.79,25.135,24.352 M26.489,27.451l-4.441-4.761
		c-0.282-0.304-0.491-0.442-0.623-0.416c-0.055,0.005-0.235,0.148-0.539,0.431l-0.172-0.183c0.158-0.232,0.369-0.568,0.634-1.009
		l0.421-0.771l2.743,2.942c-0.203-0.775,0.014-1.46,0.653-2.055c0.523-0.488,1.152-0.653,1.889-0.497
		c0.652,0.141,1.229,0.483,1.734,1.025c0.608,0.652,0.927,1.409,0.96,2.271c0.025,0.906-0.282,1.657-0.921,2.252
		c-0.632,0.59-1.277,0.914-1.934,0.972C26.761,27.667,26.626,27.599,26.489,27.451 M32.844,21.89l-3.552-5.266
		c-0.252-0.374-0.445-0.558-0.579-0.552c-0.076-0.002-0.323,0.138-0.74,0.419l-0.103-0.155c0.543-0.536,1.026-1.096,1.451-1.68
		l4.455,6.604c0.168,0.249,0.346,0.387,0.534,0.414c0.189,0.027,0.455-0.06,0.8-0.26l0.103,0.153l-2.623,1.769l-0.103-0.153
		c0.315-0.244,0.495-0.459,0.54-0.644C33.073,22.355,33.012,22.138,32.844,21.89 M39.731,14.85l-3.634,1.932
		c0.351,0.642,0.803,1.126,1.356,1.451c0.658,0.39,1.29,0.424,1.897,0.101c0.718-0.381,1.087-1.113,1.112-2.195l0.224-0.029
		c0.099,0.657,0.036,1.28-0.19,1.87c-0.245,0.629-0.647,1.093-1.208,1.392c-0.655,0.348-1.324,0.375-2.011,0.08
		c-0.686-0.295-1.221-0.8-1.602-1.517c-0.447-0.842-0.593-1.643-0.438-2.405c0.154-0.761,0.59-1.332,1.307-1.714
		c0.615-0.326,1.214-0.391,1.795-0.19C38.919,13.828,39.383,14.235,39.731,14.85 M35.933,16.39l2.407-1.28
		c-0.226-0.369-0.483-0.627-0.771-0.774c-0.353-0.172-0.707-0.164-1.065,0.027C35.771,14.752,35.581,15.427,35.933,16.39
		 M64.456,11.214l-4.106-0.287c-0.042,0.731,0.085,1.382,0.382,1.951c0.35,0.679,0.868,1.042,1.555,1.09
		c0.81,0.057,1.512-0.368,2.106-1.272l0.207,0.094c-0.265,0.61-0.648,1.105-1.153,1.485c-0.542,0.405-1.129,0.585-1.763,0.541
		c-0.739-0.051-1.321-0.384-1.748-0.999c-0.426-0.612-0.611-1.324-0.553-2.134c0.066-0.95,0.366-1.707,0.901-2.271
		c0.535-0.564,1.208-0.817,2.017-0.76c0.695,0.049,1.236,0.312,1.623,0.789C64.309,9.917,64.487,10.508,64.456,11.214 M60.42,10.507
		l2.718,0.19c0.005-0.433-0.077-0.787-0.244-1.065c-0.207-0.333-0.512-0.514-0.917-0.543C61.151,9.032,60.631,9.505,60.42,10.507
		 M71.812,12.3l-0.581,2.732c-0.056,0.267,0.015,0.422,0.213,0.464c0.164,0.035,0.405-0.017,0.723-0.157l-0.072,0.336
		c-0.477,0.377-0.88,0.531-1.207,0.461c-0.604-0.129-0.845-0.523-0.723-1.183c-0.873,0.5-1.572,0.694-2.098,0.582
		c-0.381-0.08-0.674-0.281-0.881-0.599c-0.207-0.32-0.271-0.669-0.19-1.049c0.102-0.475,0.383-0.848,0.847-1.118
		c0.352-0.215,0.834-0.382,1.446-0.505c0.478-0.078,0.955-0.158,1.43-0.237c0.131-0.612,0.186-1.024,0.169-1.235
		c-0.029-0.457-0.268-0.734-0.717-0.829c-0.439-0.093-0.746-0.032-0.919,0.184c-0.047,0.053-0.081,0.153-0.104,0.302
		c-0.045,0.298-0.068,0.446-0.068,0.446c-0.031,0.147-0.117,0.266-0.258,0.357c-0.141,0.092-0.285,0.122-0.432,0.091
		c-0.388-0.083-0.546-0.301-0.47-0.654c0.033-0.156,0.115-0.305,0.243-0.45c0.501-0.569,1.256-0.748,2.266-0.533
		c0.699,0.149,1.147,0.415,1.345,0.8C71.971,10.891,71.985,11.489,71.812,12.3 M70.175,14.59l0.471-2.213
		c-0.318,0.049-0.639,0.099-0.965,0.147c-0.394,0.069-0.696,0.176-0.907,0.321c-0.285,0.192-0.465,0.465-0.54,0.819
		c-0.063,0.302-0.043,0.563,0.063,0.785c0.118,0.251,0.324,0.407,0.617,0.469c0.147,0.032,0.371,0.013,0.675-0.052
		C69.892,14.798,70.087,14.707,70.175,14.59 M74.923,16.313l2.174-5.969c0.153-0.423,0.189-0.687,0.105-0.792
		c-0.043-0.063-0.3-0.179-0.772-0.352l0.063-0.175c0.752,0.124,1.491,0.186,2.214,0.187l-2.724,7.485
		c-0.103,0.282-0.11,0.508-0.021,0.676c0.088,0.168,0.314,0.333,0.678,0.493l-0.064,0.174l-2.971-1.082l0.063-0.174
		c0.382,0.111,0.662,0.131,0.838,0.059C74.682,16.771,74.821,16.595,74.923,16.313 M82.465,14.753l-1.622,3.184
		c-0.417,0.816-0.451,1.314-0.106,1.49c0.094,0.049,0.225,0.079,0.389,0.094c0.166,0.015,0.371-0.03,0.611-0.134l0.088,0.208
		c-0.784,0.373-1.446,0.421-1.991,0.145c-0.377-0.193-0.562-0.451-0.556-0.774c-0.001-0.288,0.152-0.735,0.461-1.34l1.724-3.383
		l-0.354-0.18c-0.236-0.12-0.309-0.152-0.217-0.097c-0.075-0.048-0.099-0.099-0.071-0.154c0.012-0.024,0.037-0.05,0.072-0.082
		c0.371-0.049,0.798-0.167,1.281-0.357c0.424-0.19,0.849-0.374,1.277-0.553l-0.793,1.557l1.167,0.595l-0.193,0.377L82.465,14.753z
		 M84.154,20.784l3.644-5.203c0.217-0.312,0.314-0.523,0.291-0.637c-0.022-0.112-0.198-0.274-0.526-0.482l0.145-0.205
		c0.252,0.102,0.616,0.233,1.096,0.396l0.841,0.25l-2.306,3.296c0.853-0.263,1.575-0.189,2.167,0.227
		c0.521,0.365,0.777,0.774,0.769,1.232c-0.011,0.401-0.24,0.92-0.685,1.556l-1.588,2.265c-0.167,0.239-0.24,0.446-0.218,0.622
		c0.021,0.177,0.155,0.368,0.4,0.571l-0.107,0.152l-2.287-1.602l0.106-0.152c0.276,0.161,0.5,0.221,0.674,0.181
		c0.174-0.04,0.344-0.18,0.511-0.418l1.578-2.255c0.284-0.405,0.447-0.722,0.489-0.951c0.064-0.353-0.077-0.652-0.424-0.895
		c-0.268-0.187-0.548-0.286-0.841-0.297c-0.152,0.001-0.417,0.041-0.796,0.12l-2.011,2.873c-0.168,0.238-0.239,0.445-0.217,0.622
		c0.021,0.178,0.153,0.368,0.398,0.572l-0.105,0.152l-2.288-1.602l0.105-0.152c0.276,0.16,0.501,0.221,0.674,0.18
		C83.817,21.161,83.987,21.023,84.154,20.784 M107.673,39.04c-0.072-0.168-0.072-0.339-0.003-0.513
		c0.072-0.171,0.191-0.294,0.362-0.367c0.171-0.072,0.344-0.073,0.515-0.005c0.174,0.071,0.296,0.188,0.368,0.357
		c0.072,0.168,0.072,0.339,0.001,0.513c-0.07,0.171-0.19,0.294-0.361,0.367c-0.171,0.072-0.341,0.072-0.515,0.004
		C107.865,39.327,107.742,39.209,107.673,39.04 M101.403,41.205l2.947-1.251c0.359-0.151,0.59-0.284,0.696-0.396
		c0.105-0.112,0.124-0.249,0.055-0.412c-0.045-0.105-0.145-0.264-0.302-0.475l0.171-0.072l1.476,1.687l-4.604,1.954
		c-0.275,0.118-0.445,0.264-0.51,0.44c-0.064,0.176-0.031,0.451,0.1,0.827l-0.171,0.072l-1.226-2.887l0.171-0.072
		c0.178,0.355,0.354,0.57,0.525,0.646C100.903,41.342,101.127,41.322,101.403,41.205 M101.953,45.975l1.961-0.6l0.066,0.215
		c-1.12,0.556-1.544,1.285-1.269,2.187c0.088,0.287,0.244,0.502,0.467,0.646c0.225,0.144,0.475,0.173,0.754,0.088
		c0.364-0.111,0.625-0.463,0.784-1.057c0.14-0.541,0.278-1.086,0.415-1.634c0.218-0.611,0.582-0.994,1.087-1.15
		c0.472-0.143,0.911-0.084,1.314,0.181c0.373,0.254,0.635,0.627,0.785,1.116c0.057,0.186,0.076,0.521,0.06,1.007
		c-0.005,0.111,0.005,0.201,0.026,0.269c0.03,0.102,0.107,0.157,0.23,0.164l0.05,0.165l-1.722,0.526l-0.06-0.203
		c0.464-0.289,0.783-0.557,0.957-0.804c0.226-0.318,0.279-0.672,0.16-1.06c-0.076-0.253-0.22-0.453-0.433-0.6
		c-0.211-0.148-0.438-0.185-0.683-0.109c-0.347,0.105-0.604,0.466-0.777,1.08c-0.142,0.561-0.283,1.125-0.424,1.694
		c-0.222,0.631-0.557,1.014-1.005,1.151c-0.522,0.16-0.991,0.105-1.406-0.165c-0.415-0.27-0.703-0.671-0.866-1.202
		c-0.055-0.177-0.084-0.5-0.089-0.968c0.001-0.241-0.017-0.42-0.053-0.538c-0.046-0.152-0.137-0.225-0.275-0.22L101.953,45.975z
		 M103.457,52.345l2.03-0.285l0.032,0.222c-1.195,0.374-1.726,1.027-1.596,1.962c0.042,0.297,0.162,0.534,0.361,0.712
		c0.199,0.176,0.441,0.244,0.73,0.204c0.375-0.053,0.689-0.36,0.94-0.921c0.221-0.512,0.442-1.028,0.663-1.549
		c0.312-0.569,0.73-0.891,1.254-0.965c0.49-0.069,0.913,0.059,1.271,0.382c0.329,0.311,0.529,0.72,0.599,1.226
		c0.028,0.191-0.006,0.525-0.099,1.003c-0.02,0.108-0.025,0.199-0.015,0.269c0.015,0.105,0.081,0.17,0.201,0.199l0.023,0.17
		l-1.782,0.25l-0.03-0.209c0.505-0.213,0.862-0.428,1.072-0.645c0.273-0.279,0.381-0.619,0.324-1.021
		c-0.036-0.262-0.147-0.482-0.333-0.661c-0.186-0.179-0.405-0.251-0.659-0.215c-0.358,0.051-0.669,0.365-0.936,0.947
		c-0.229,0.531-0.456,1.066-0.683,1.605c-0.319,0.588-0.709,0.916-1.172,0.979c-0.541,0.077-0.995-0.05-1.363-0.383
		c-0.368-0.33-0.59-0.771-0.667-1.322c-0.026-0.183-0.004-0.507,0.065-0.972c0.038-0.236,0.048-0.416,0.031-0.538
		c-0.022-0.158-0.101-0.244-0.237-0.261L103.457,52.345z M111.612,60.044c0-0.183,0.068-0.34,0.2-0.472
		c0.132-0.131,0.291-0.196,0.477-0.196s0.343,0.065,0.477,0.196c0.132,0.132,0.199,0.289,0.199,0.472
		c0,0.183-0.067,0.339-0.199,0.472c-0.133,0.13-0.291,0.195-0.477,0.195s-0.344-0.065-0.477-0.195
		C111.68,60.383,111.612,60.227,111.612,60.044 M104.996,59.587h3.203c0.389,0,0.653-0.031,0.794-0.092
		c0.141-0.062,0.212-0.181,0.212-0.358c0-0.114-0.031-0.3-0.093-0.555h0.186l0.701,2.13h-5.003c-0.3,0-0.513,0.069-0.642,0.206
		c-0.128,0.138-0.205,0.404-0.232,0.8h-0.185v-3.136h0.185c0.027,0.396,0.104,0.664,0.232,0.8
		C104.483,59.519,104.696,59.587,104.996,59.587 M109.422,67.615c-0.137,0.863-0.514,1.523-1.132,1.985
		c-0.618,0.46-1.354,0.622-2.208,0.487c-0.888-0.142-1.601-0.521-2.137-1.143c-0.566-0.652-0.78-1.419-0.641-2.298
		c0.131-0.82,0.539-1.452,1.226-1.896c0.658-0.432,1.392-0.583,2.202-0.455c0.898,0.142,1.599,0.504,2.106,1.084
		C109.365,65.998,109.56,66.743,109.422,67.615 M103.659,66.943c-0.076,0.479,0.095,0.891,0.515,1.234
		c0.372,0.308,0.866,0.512,1.484,0.611c0.766,0.121,1.45,0.1,2.047-0.064c0.794-0.223,1.244-0.666,1.349-1.327
		c0.074-0.462-0.061-0.851-0.404-1.17c-0.342-0.318-0.811-0.524-1.403-0.618c-0.967-0.153-1.771-0.124-2.412,0.087
		C104.148,65.926,103.755,66.342,103.659,66.943 M103.08,72.639l3.065,1.055c0.417,0.144,0.673,0.204,0.764,0.18
		c0.166-0.046,0.3-0.265,0.409-0.658l0.174,0.061l-0.049,2.055l-1.001-0.346c0.454,0.847,0.568,1.6,0.341,2.26
		c-0.337,0.976-1.175,1.232-2.519,0.77l-2.715-0.935c-0.275-0.096-0.495-0.108-0.659-0.038c-0.163,0.068-0.31,0.25-0.438,0.541
		l-0.175-0.06l0.909-2.64l0.174,0.06c-0.078,0.309-0.073,0.541,0.013,0.697c0.087,0.156,0.268,0.281,0.543,0.375l2.69,0.926
		c0.451,0.156,0.787,0.22,1.011,0.195c0.325-0.048,0.555-0.271,0.693-0.671c0.152-0.443,0.067-0.981-0.256-1.614l-3.341-1.151
		c-0.275-0.095-0.495-0.107-0.659-0.037c-0.164,0.069-0.31,0.25-0.439,0.541l-0.175-0.06l0.909-2.641l0.176,0.061
		c-0.079,0.31-0.075,0.542,0.011,0.697C102.624,72.419,102.804,72.544,103.08,72.639"/>
	<path clip-path="url(#SVGID_2_)" fill-rule="evenodd" clip-rule="evenodd" fill="#47A5AE" d="M45.574,81.244
		c0,0,5.976,5.467,14.178,4.863c6.806-0.501,12.119-7.408,22.432-2.553c-9.045-2.996-14.705,2.462-14.739,2.496l-0.004,0.002
		c-9.023,6.535-17.16-0.338-17.16-0.338C48.908,84.56,47.373,83.094,45.574,81.244"/>
	<rect x="129.005" y="24" clip-path="url(#SVGID_2_)" fill-rule="evenodd" clip-rule="evenodd" width="1" height="61.057"/>
</g>
</svg>
